<?xml version="1.0" encoding="UTF-8"?>
<svg width="98px" height="34px" viewBox="0 0 98 34" version="1.1" xmlns="http://www.w3.org/2000/svg" xmlns:xlink="http://www.w3.org/1999/xlink">
    <title>APPS</title>
    <g id="Page-1" stroke="none" stroke-width="1" fill="none" fill-rule="evenodd">
        <g id="GINEVARPAGE1" transform="translate(-716.000000, -1352.000000)" fill="#FFF133" fill-rule="nonzero">
            <path d="M723.441406,1385.20312 C724.834635,1381.51823 725.765625,1379.64974 726.234375,1379.59766 C728.03125,1379.44141 729.665365,1379.47396 731.136719,1379.69531 L731.136719,1379.69531 L730.726562,1385.125 L738.441406,1383.07422 C738.480469,1371.85026 739.13151,1361.82422 740.394531,1352.99609 L740.394531,1352.99609 L731.175781,1353.19141 C724.639323,1366.22526 719.60026,1376.86328 716.058594,1385.10547 L716.058594,1385.10547 L723.441406,1385.20312 Z M728.265625,1373.03516 C729.971354,1369.35026 731.279948,1366.58333 732.191406,1364.73438 C731.904948,1368.38021 731.729167,1371.11458 731.664062,1372.9375 C730.713542,1372.88542 729.717448,1372.90495 728.675781,1372.99609 L728.675781,1372.99609 L728.265625,1373.03516 Z M741.456618,1384.96875 L748.429274,1384.36328 L751.105055,1375.73047 C754.815993,1375.15755 758.168857,1373.83594 761.163649,1371.76562 C764.431878,1369.5 766.886305,1366.57682 768.52693,1362.99609 C768.735263,1362.52734 768.924066,1361.96094 769.093336,1361.29688 C770.812086,1354.91667 765.200107,1352.28646 752.257399,1353.40625 C751.085524,1353.51042 749.646722,1353.78385 747.940993,1354.22656 L747.940993,1354.22656 L747.198805,1361.0625 C747.954013,1360.8151 748.611566,1360.63932 749.171461,1360.53516 C745.681878,1371.69401 743.110263,1379.83854 741.456618,1384.96875 L741.456618,1384.96875 Z M753.194899,1368.93359 L755.929274,1360.45703 L755.440993,1360.16406 C759.815993,1359.8125 761.671461,1360.88021 761.007399,1363.36719 C760.603753,1364.85156 759.523024,1366.1276 757.765211,1367.19531 C756.371982,1368.06771 754.848545,1368.64714 753.194899,1368.93359 L753.194899,1368.93359 Z M765.956204,1384.96875 L772.92886,1384.36328 L775.604641,1375.73047 C779.315579,1375.15755 782.668444,1373.83594 785.663235,1371.76562 C788.931464,1369.5 791.385891,1366.57682 793.026516,1362.99609 C793.23485,1362.52734 793.423652,1361.96094 793.592923,1361.29688 C795.311673,1354.91667 789.699694,1352.28646 776.756985,1353.40625 C775.58511,1353.51042 774.146308,1353.78385 772.440579,1354.22656 L772.440579,1354.22656 L771.698391,1361.0625 C772.4536,1360.8151 773.111152,1360.63932 773.671048,1360.53516 C770.181464,1371.69401 767.60985,1379.83854 765.956204,1384.96875 L765.956204,1384.96875 Z M777.694485,1368.93359 L780.42886,1360.45703 L779.940579,1360.16406 C784.315579,1359.8125 786.171048,1360.88021 785.506985,1363.36719 C785.103339,1364.85156 784.02261,1366.1276 782.264798,1367.19531 C780.871569,1368.06771 779.348131,1368.64714 777.694485,1368.93359 L777.694485,1368.93359 Z M789.127665,1385.73047 C792.747457,1385.41797 795.970113,1384.59766 798.795634,1383.26953 C802.63678,1381.47266 804.993551,1378.95964 805.865947,1375.73047 C806.425842,1373.59505 806.302144,1370.79557 805.494853,1367.33203 C804.713603,1364.0638 804.335999,1362.36458 804.36204,1362.23438 C804.583394,1361.4401 805.618551,1360.96484 807.467509,1360.80859 C807.79303,1360.78255 808.297587,1360.75651 808.981181,1360.73047 C809.664775,1360.70443 810.182353,1360.6849 810.533915,1360.67188 L810.533915,1360.67188 L810.76829,1360.59375 L813.26829,1352.9375 C811.289124,1352.72917 809.446676,1352.69661 807.740947,1352.83984 C805.839905,1353.00911 804.238342,1353.39323 802.936259,1353.99219 C801.334697,1354.73438 799.856832,1355.88346 798.502665,1357.43945 C797.148499,1358.99544 796.256572,1360.57422 795.826884,1362.17578 C795.475322,1363.4388 795.540426,1365.04688 796.022197,1367 C796.38678,1368.28906 796.731832,1369.59115 797.057353,1370.90625 C797.526103,1372.80729 797.649801,1374.13542 797.428447,1374.89062 C797.337301,1375.29427 797.213603,1375.56445 797.057353,1375.70117 C796.901103,1375.83789 796.595113,1375.99089 796.139384,1376.16016 C794.889384,1376.68099 792.962301,1377.13021 790.358134,1377.50781 L790.358134,1377.50781 L789.127665,1385.73047 Z" id="APPS"></path>
        </g>
    </g>
</svg>