<?xml version="1.0" encoding="UTF-8"?>
<svg width="587px" height="276px" viewBox="0 0 587 276" version="1.1" xmlns="http://www.w3.org/2000/svg" xmlns:xlink="http://www.w3.org/1999/xlink">
    <title>GinevarLabs_</title>
    <defs>
        <path d="M1868.27831,901.190391 C1871.54557,884.974795 1875.14467,869.376935 1879.0756,854.396813 C1883.15969,839.004866 1888.31584,821.682491 1894.54407,802.429688 L1870.49903,802.970207 C1864.2708,821.244927 1859.11464,838.026782 1855.03056,853.315773 C1850.84437,868.862154 1847.01554,885.566792 1843.54407,903.429688 L1868.27831,901.190391 Z M1906.36947,900.363671 C1909.49506,886.692253 1912.08264,876.107107 1914.13221,868.608232 L1915.13137,864.858795 L1928.42795,898.527212 L1951.33188,894.854294 C1954.55995,876.846792 1958.24917,860.191128 1962.39954,844.887302 C1965.37142,833.970573 1969.08626,821.829537 1973.54407,808.464196 L1952.25418,800.429688 C1947.64265,811.754519 1943.85095,822.900805 1940.87908,833.868547 C1939.90553,837.43944 1939.06008,840.67875 1938.34274,843.586477 L1924.58501,800.888802 L1898.60673,816.116109 L1901.91166,824.533213 C1899.04226,834.429688 1896.24973,844.351668 1893.53405,854.299155 C1889.38367,869.602981 1885.38701,885.646492 1881.54407,902.429688 L1906.36947,900.363671 Z M1966.54407,902.429688 C1977.52048,900.900276 1987.0232,899.778707 1995.05224,899.064982 C2003.18291,898.351256 2012.63482,897.790472 2023.40796,897.382629 L2029.73464,873.217923 C2023.07765,873.472825 2016.87801,873.855178 2011.13572,874.364982 C2005.95242,874.823805 2001.3281,875.308119 1997.26277,875.817923 C1997.6693,873.319884 1998.10124,871.153217 1998.55859,869.317923 C1999.06676,867.329688 1999.8036,865.06106 2000.76912,862.51204 C2005.44425,861.747335 2009.45877,861.18655 2012.81268,860.829688 C2017.18291,860.472825 2022.69652,860.294393 2029.35351,860.294393 L2035.83264,836.053217 C2029.9379,836.206158 2024.39888,836.51204 2019.21558,836.970864 C2015.15024,837.378707 2011.21195,837.81204 2007.4007,838.270864 C2008.06131,835.11008 2008.67111,832.484589 2009.2301,830.394393 C2009.63663,828.66106 2010.1448,826.876746 2010.7546,825.041452 C2013.44788,824.73557 2017.38618,824.353217 2022.56948,823.894393 C2028.66748,823.384589 2035.47692,822.951256 2042.99779,822.594393 L2050.54407,798.429688 C2040.93972,799.653217 2033.01231,800.519884 2026.76186,801.029688 C2015.3281,802.100276 2001.27729,802.966942 1984.60941,803.629688 L1978.89253,826.341452 L1986.43881,826.11204 C1983.23736,836.664982 1980.06131,847.753217 1976.91068,859.376746 C1973.30269,872.784589 1969.84716,887.13557 1966.54407,902.429688 Z M2048.54407,900.429688 C2051.97997,899.920821 2055.13382,899.539171 2058.00561,899.284738 C2063.95433,898.724984 2070.46715,898.801314 2077.54407,899.513728 C2083.95433,884.298616 2092.72356,866.055748 2103.85176,844.785123 C2112.51843,827.941638 2120.7492,813.489826 2128.54407,801.429688 L2102.77484,802.345647 C2092.51843,819.647112 2083.36459,837.228454 2075.3133,855.089672 C2075.87741,842.673327 2077.82612,825.346418 2081.15946,803.108947 L2057.39023,803.872247 C2055.08253,820.308639 2053.05689,837.864537 2051.3133,856.539942 C2049.82612,872.620127 2048.90305,887.250042 2048.54407,900.429688 Z M2123.49486,901.363671 L2129.63659,886.059845 L2131.55588,885.906807 C2136.21336,885.396679 2141.07557,885.524211 2146.1425,886.289402 L2145.22124,899.374174 L2170.40234,897.155119 C2170.55588,861.293153 2172.60313,829.384676 2176.54407,801.429688 L2146.75667,802.11836 C2125.61888,843.897805 2109.54801,877.668247 2098.54407,903.429688 L2123.49486,901.363671 Z M2138.54407,864.429688 C2142.92503,854.104211 2146.25836,846.437544 2148.54407,841.429688 C2147.87741,851.548655 2147.47264,859.086253 2147.32979,864.042482 C2144.90122,863.939227 2142.32979,864.016668 2139.6155,864.274805 L2138.54407,864.429688 Z M2203.52364,900.36058 C2205.59783,892.595043 2208.05143,884.216436 2210.88446,875.224761 C2218.47293,880.384757 2223.12719,889.376432 2224.84725,902.199787 L2250.79982,894.229893 C2247.05618,880.538024 2241.64307,870.984369 2234.56049,865.568928 C2242.35132,861.532892 2249.23154,856.21963 2255.20114,849.62914 C2261.57545,842.476672 2265.69852,835.094302 2267.57034,827.482032 C2273.03404,806.995317 2255.50467,798.591166 2214.98224,802.269579 C2211.39036,802.525024 2206.68551,803.393538 2200.86768,804.875121 L2198.59114,827.328764 L2204.13072,825.796092 C2193.15273,857.726757 2184.95718,883.271289 2179.54407,902.429688 L2203.52364,900.36058 Z M2227.10799,824.758738 L2226.71872,824.526817 C2238.96772,823.805284 2244.10607,827.10372 2242.13378,834.422126 C2240.88812,838.802861 2237.61826,842.616678 2232.3242,845.863576 C2228.17199,848.595094 2223.57862,850.450464 2218.54407,851.429688 L2227.10799,824.758738 Z M1865.01947,972.396679 L1868.09033,964.744766 L1869.04998,964.668247 C1871.37872,964.413183 1873.80982,964.476949 1876.34329,964.859545 L1875.88266,971.401931 L1888.47321,970.292403 C1888.54998,952.36142 1889.5736,936.407182 1891.54407,922.429688 L1876.65037,922.774024 C1866.08147,943.663746 1858.04604,960.548967 1852.54407,973.429688 L1865.01947,972.396679 Z M1872.54407,953.429688 C1872.66577,953.155339 1872.78584,952.884915 1872.9043,952.618416 L1873.59566,951.066519 C1875.27555,947.304516 1876.59169,944.425572 1877.54407,942.429688 C1877.21074,947.269194 1877.00836,950.874132 1876.93693,953.244502 C1875.72264,953.19512 1874.43693,953.232157 1873.07979,953.355613 L1872.54407,953.429688 Z M1891.54407,971.786784 C1897.37432,972.558268 1903.74157,972.635417 1910.64581,972.018229 C1915.45321,971.581055 1919.87704,970.089518 1923.9173,967.54362 C1928.77585,964.560547 1931.81883,960.7417 1933.04625,956.087077 C1934.35038,951.303874 1933.27639,947.575033 1929.82427,944.900554 C1934.75952,941.223145 1937.84086,937.172852 1939.06828,932.749675 C1941.3697,924.083335 1935.32209,920.393068 1920.92546,921.678875 C1913.76551,922.321779 1908.30604,923.106121 1904.54706,924.031902 L1903.358,935.372722 L1906.31148,934.562664 C1902.29679,947.703614 1899.57345,956.549968 1898.14146,961.101726 L1896.18526,960.715983 L1891.54407,971.786784 Z M1914.54407,942.429688 L1917.61436,934.294767 L1916.3526,933.620164 C1923.81102,932.985243 1927.17572,933.937624 1926.4467,936.477307 C1925.49337,939.942915 1921.76416,941.900587 1915.25907,942.350322 L1914.54407,942.429688 Z M1912.16832,961.38957 C1911.39833,961.44306 1910.19025,961.44306 1908.54407,961.38957 C1910.45576,954.917219 1912.02229,951.640925 1913.24364,951.56069 C1919.66904,950.945549 1922.364,952.496774 1921.3285,956.214363 C1920.95678,957.658607 1919.61594,958.915634 1917.30598,959.985444 C1915.5536,960.761056 1913.84105,961.229098 1912.16832,961.38957 Z M1934.54407,973.429688 C1939.31151,972.971782 1943.77464,971.941496 1947.93346,970.338829 C1953.56309,968.125621 1957.45565,965.149239 1959.61114,961.409681 C1960.21975,960.290358 1960.76496,958.814886 1961.24678,956.983266 C1961.88074,954.744619 1961.94414,952.149824 1961.43697,949.198881 C1961.33553,948.893611 1960.79032,946.833038 1959.80133,943.017163 C1958.93913,939.608315 1958.5334,937.776695 1958.58411,937.522303 C1958.88842,936.40298 1960.52405,935.716122 1963.49102,935.46173 C1964.02355,935.410852 1964.84137,935.372693 1965.94447,935.347254 L1966.40054,935.335573 C1967.2793,935.310653 1967.95777,935.276388 1968.43596,935.232778 L1972.54407,922.754866 C1969.12065,922.398718 1966.16636,922.33512 1963.68121,922.564073 C1960.7396,922.818464 1958.21641,923.416285 1956.11164,924.357534 C1953.55041,925.527736 1951.18571,927.340276 1949.01755,929.795156 C1946.84938,932.250036 1945.42295,934.787593 1944.73827,937.407827 C1944.18038,939.44296 1944.29449,941.935998 1945.08061,944.886942 C1945.6385,946.794879 1946.19639,948.677378 1946.75428,950.534437 C1947.56576,953.358185 1947.84471,955.253403 1947.59112,956.220091 C1947.38825,956.957827 1946.77964,957.542928 1945.76529,957.975393 C1944.57344,958.458738 1943.01388,958.891203 1941.08662,959.272791 C1940.09763,959.501743 1938.61414,959.743416 1936.63616,959.997807 L1934.54407,973.429688 Z M1773.38091,920.712777 C1771.31476,929.238735 1769.65764,936.241818 1768.40954,941.722028 C1783.49522,940.669625 1792.24492,940.059231 1800.66973,939.498748 L1801.87171,939.418976 C1813.0817,938.676817 1824.22298,937.990194 1849.54407,936.429688 L1849.54407,936.429688 L1831.90041,975.429688 C1768.21149,978.192259 1730.60927,979.752155 1719.09375,980.109375 C1722.35553,968.111875 1726.58702,952.969658 1731.36777,936.114453 C1731.84616,934.427818 1732.57565,931.860888 1733.55623,928.413661 C1742.87473,928.32345 1749.78852,927.669891 1754.2976,926.452984 C1758.80668,925.236077 1765.16778,923.322675 1773.38091,920.712777 Z M2001.54407,960.429688 L1998.9593,970.239503 L1963.54407,973.429688 L1966.12884,963.619872 L2001.54407,960.429688 Z M1798.99693,750.557455 C1831.76409,747.826626 1852.84454,757.679754 1862.23828,780.116841 L1862.23828,780.116841 L1824.73727,804.694307 L1824.613,804.291381 C1820.43834,791.0697 1808.97797,785.262609 1790.23191,786.870109 C1776.10431,788.124814 1763.7519,795.062597 1753.1747,807.683458 C1744.59458,817.647296 1738.6033,828.976549 1735.20084,841.671216 C1731.87235,854.144465 1731.46553,864.55114 1733.98039,872.891241 C1737.38285,883.666947 1745.85201,888.427447 1759.38788,887.172742 C1768.11593,886.43468 1775.10576,884.921653 1780.35738,882.63366 C1792.78375,877.098195 1802.06654,863.001209 1808.20576,840.342704 C1809.09336,836.800007 1809.94397,833.03589 1810.75761,829.050355 L1810.75761,829.050355 L1851.80901,819.750773 L1826.40152,914.185813 L1787.01436,917.617802 L1791.00855,903.225591 L1790.19895,903.765876 C1774.52749,914.136358 1757.74808,920.155984 1739.86073,921.824755 C1716.93112,923.817523 1701.84195,915.477422 1694.59324,896.804452 C1688.82385,882.117017 1688.78687,864.182109 1694.48229,842.999728 C1700.39961,821.300703 1712.38218,801.668253 1730.43,784.102376 C1750.99268,764.027088 1773.84833,752.845448 1798.99693,750.557455 Z M1788.47411,793.400201 C1802.59783,791.864586 1807.56791,795.759554 1807.48249,796.028062 C1799.50848,821.173447 1791.56237,849.077178 1785.47502,871.468258 C1785.43669,871.609246 1777.06508,878.091379 1761.2951,880.094032 C1757.35631,880.594226 1753.23385,880.315203 1748.92774,879.256965 C1756.24865,849.581499 1763.20724,823.453705 1769.80351,800.873583 C1769.96313,800.327183 1774.35039,794.935815 1788.47411,793.400201 Z M1836.28707,714.109375 C1832.13968,725.606233 1828.32166,736.136371 1824.83301,745.699788 C1816.75498,744.502171 1810.68676,743.903362 1806.62837,743.903362 C1802.74197,743.903362 1796.89299,744.502171 1789.08143,745.699788 C1790.55626,741.088459 1791.47221,738.22458 1792.37067,735.389089 L1792.52035,734.916476 C1793.94248,730.423542 1795.39617,725.762351 1799.03039,714.109375 L1799.03039,714.109375 Z" id="path-1"></path>
        <filter x="-0.9%" y="-1.9%" width="103.1%" height="107.5%" filterUnits="objectBoundingBox" id="filter-2">
            <feOffset dx="4" dy="6" in="SourceAlpha" result="shadowOffsetOuter1"></feOffset>
            <feGaussianBlur stdDeviation="2" in="shadowOffsetOuter1" result="shadowBlurOuter1"></feGaussianBlur>
            <feColorMatrix values="0 0 0 0 0.0392156863   0 0 0 0 0.0431372549   0 0 0 0 0.0549019608  0 0 0 1 0" type="matrix" in="shadowBlurOuter1"></feColorMatrix>
        </filter>
    </defs>
    <g id="Page-1" stroke="none" stroke-width="1" fill="none" fill-rule="evenodd">
        <g id="Artboard" transform="translate(-1690.000000, -714.000000)" fill-rule="nonzero">
            <g id="GinevarLabs_">
                <use fill="black" fill-opacity="1" filter="url(#filter-2)" xlink:href="#path-1"></use>
                <use fill="#FFF133" xlink:href="#path-1"></use>
            </g>
        </g>
    </g>
</svg>