<?xml version="1.0" encoding="UTF-8"?>
<svg width="587px" height="276px" viewBox="0 0 587 276" version="1.1" xmlns="http://www.w3.org/2000/svg" xmlns:xlink="http://www.w3.org/1999/xlink">
    <title>GinevarLabs_</title>
    <defs>
        <path d="M1893.27831,482.190391 C1896.54557,465.974795 1900.14467,450.376935 1904.0756,435.396813 C1908.15969,420.004866 1913.31584,402.682491 1919.54407,383.429688 L1895.49903,383.970207 C1889.2708,402.244927 1884.11464,419.026782 1880.03056,434.315773 C1875.84437,449.862154 1872.01554,466.566792 1868.54407,484.429688 L1893.27831,482.190391 Z M1931.36947,481.363671 C1934.49506,467.692253 1937.08264,457.107107 1939.13221,449.608232 L1940.13137,445.858795 L1953.42795,479.527212 L1976.33188,475.854294 C1979.55995,457.846792 1983.24917,441.191128 1987.39954,425.887302 C1990.37142,414.970573 1994.08626,402.829537 1998.54407,389.464196 L1977.25418,381.429688 C1972.64265,392.754519 1968.85095,403.900805 1965.87908,414.868547 C1964.90553,418.43944 1964.06008,421.67875 1963.34274,424.586477 L1949.58501,381.888802 L1923.60673,397.116109 L1926.91166,405.533213 C1924.04226,415.429688 1921.24973,425.351668 1918.53405,435.299155 C1914.38367,450.602981 1910.38701,466.646492 1906.54407,483.429688 L1931.36947,481.363671 Z M1991.54407,483.429688 C2002.52048,481.900276 2012.0232,480.778707 2020.05224,480.064982 C2028.18291,479.351256 2037.63482,478.790472 2048.40796,478.382629 L2054.73464,454.217923 C2048.07765,454.472825 2041.87801,454.855178 2036.13572,455.364982 C2030.95242,455.823805 2026.3281,456.308119 2022.26277,456.817923 C2022.6693,454.319884 2023.10124,452.153217 2023.55859,450.317923 C2024.06676,448.329688 2024.8036,446.06106 2025.76912,443.51204 C2030.44425,442.747335 2034.45877,442.18655 2037.81268,441.829688 C2042.18291,441.472825 2047.69652,441.294393 2054.35351,441.294393 L2060.83264,417.053217 C2054.9379,417.206158 2049.39888,417.51204 2044.21558,417.970864 C2040.15024,418.378707 2036.21195,418.81204 2032.4007,419.270864 C2033.06131,416.11008 2033.67111,413.484589 2034.2301,411.394393 C2034.63663,409.66106 2035.1448,407.876746 2035.7546,406.041452 C2038.44788,405.73557 2042.38618,405.353217 2047.56948,404.894393 C2053.66748,404.384589 2060.47692,403.951256 2067.99779,403.594393 L2075.54407,379.429688 C2065.93972,380.653217 2058.01231,381.519884 2051.76186,382.029688 C2040.3281,383.100276 2026.27729,383.966942 2009.60941,384.629688 L2003.89253,407.341452 L2011.43881,407.11204 C2008.23736,417.664982 2005.06131,428.753217 2001.91068,440.376746 C1998.30269,453.784589 1994.84716,468.13557 1991.54407,483.429688 Z M2073.54407,481.429688 C2076.97997,480.920821 2080.13382,480.539171 2083.00561,480.284738 C2088.95433,479.724984 2095.46715,479.801314 2102.54407,480.513728 C2108.95433,465.298616 2117.72356,447.055748 2128.85176,425.785123 C2137.51843,408.941638 2145.7492,394.489826 2153.54407,382.429688 L2127.77484,383.345647 C2117.51843,400.647112 2108.36459,418.228454 2100.3133,436.089672 C2100.87741,423.673327 2102.82612,406.346418 2106.15946,384.108947 L2082.39023,384.872247 C2080.08253,401.308639 2078.05689,418.864537 2076.3133,437.539942 C2074.82612,453.620127 2073.90305,468.250042 2073.54407,481.429688 Z M2148.49486,482.363671 L2154.63659,467.059845 L2156.55588,466.906807 C2161.21336,466.396679 2166.07557,466.524211 2171.1425,467.289402 L2170.22124,480.374174 L2195.40234,478.155119 C2195.55588,442.293153 2197.60313,410.384676 2201.54407,382.429688 L2171.75667,383.11836 C2150.61888,424.897805 2134.54801,458.668247 2123.54407,484.429688 L2148.49486,482.363671 Z M2163.54407,445.429688 C2167.92503,435.104211 2171.25836,427.437544 2173.54407,422.429688 C2172.87741,432.548655 2172.47264,440.086253 2172.32979,445.042482 C2169.90122,444.939227 2167.32979,445.016668 2164.6155,445.274805 L2163.54407,445.429688 Z M2228.52364,481.36058 C2230.59783,473.595043 2233.05143,465.216436 2235.88446,456.224761 C2243.47293,461.384757 2248.12719,470.376432 2249.84725,483.199787 L2275.79982,475.229893 C2272.05618,461.538024 2266.64307,451.984369 2259.56049,446.568928 C2267.35132,442.532892 2274.23154,437.21963 2280.20114,430.62914 C2286.57545,423.476672 2290.69852,416.094302 2292.57034,408.482032 C2298.03404,387.995317 2280.50467,379.591166 2239.98224,383.269579 C2236.39036,383.525024 2231.68551,384.393538 2225.86768,385.875121 L2223.59114,408.328764 L2229.13072,406.796092 C2218.15273,438.726757 2209.95718,464.271289 2204.54407,483.429688 L2228.52364,481.36058 Z M2252.10799,405.758738 L2251.71872,405.526817 C2263.96772,404.805284 2269.10607,408.10372 2267.13378,415.422126 C2265.88812,419.802861 2262.61826,423.616678 2257.3242,426.863576 C2253.17199,429.595094 2248.57862,431.450464 2243.54407,432.429688 L2252.10799,405.758738 Z M1890.01947,553.396679 L1893.09033,545.744766 L1894.04998,545.668247 C1896.37872,545.413183 1898.80982,545.476949 1901.34329,545.859545 L1900.88266,552.401931 L1913.47321,551.292403 C1913.54998,533.36142 1914.5736,517.407182 1916.54407,503.429688 L1901.65037,503.774024 C1891.08147,524.663746 1883.04604,541.548967 1877.54407,554.429688 L1890.01947,553.396679 Z M1897.54407,534.429688 C1897.66577,534.155339 1897.78584,533.884915 1897.9043,533.618416 L1898.59566,532.066519 C1900.27555,528.304516 1901.59169,525.425572 1902.54407,523.429688 C1902.21074,528.269194 1902.00836,531.874132 1901.93693,534.244502 C1900.72264,534.19512 1899.43693,534.232157 1898.07979,534.355613 L1897.54407,534.429688 Z M1916.54407,552.786784 C1922.37432,553.558268 1928.74157,553.635417 1935.64581,553.018229 C1940.45321,552.581055 1944.87704,551.089518 1948.9173,548.54362 C1953.77585,545.560547 1956.81883,541.7417 1958.04625,537.087077 C1959.35038,532.303874 1958.27639,528.575033 1954.82427,525.900554 C1959.75952,522.223145 1962.84086,518.172852 1964.06828,513.749675 C1966.3697,505.083335 1960.32209,501.393068 1945.92546,502.678875 C1938.76551,503.321779 1933.30604,504.106121 1929.54706,505.031902 L1928.358,516.372722 L1931.31148,515.562664 C1927.29679,528.703614 1924.57345,537.549968 1923.14146,542.101726 L1921.18526,541.715983 L1916.54407,552.786784 Z M1939.54407,523.429688 L1942.61436,515.294767 L1941.3526,514.620164 C1948.81102,513.985243 1952.17572,514.937624 1951.4467,517.477307 C1950.49337,520.942915 1946.76416,522.900587 1940.25907,523.350322 L1939.54407,523.429688 Z M1937.16832,542.38957 C1936.39833,542.44306 1935.19025,542.44306 1933.54407,542.38957 C1935.45576,535.917219 1937.02229,532.640925 1938.24364,532.56069 C1944.66904,531.945549 1947.364,533.496774 1946.3285,537.214363 C1945.95678,538.658607 1944.61594,539.915634 1942.30598,540.985444 C1940.5536,541.761056 1938.84105,542.229098 1937.16832,542.38957 Z M1959.54407,554.429688 C1964.31151,553.971782 1968.77464,552.941496 1972.93346,551.338829 C1978.56309,549.125621 1982.45565,546.149239 1984.61114,542.409681 C1985.21975,541.290358 1985.76496,539.814886 1986.24678,537.983266 C1986.88074,535.744619 1986.94414,533.149824 1986.43697,530.198881 C1986.33553,529.893611 1985.79032,527.833038 1984.80133,524.017163 C1983.93913,520.608315 1983.5334,518.776695 1983.58411,518.522303 C1983.88842,517.40298 1985.52405,516.716122 1988.49102,516.46173 C1989.02355,516.410852 1989.84137,516.372693 1990.94447,516.347254 L1991.40054,516.335573 C1992.2793,516.310653 1992.95777,516.276388 1993.43596,516.232778 L1997.54407,503.754866 C1994.12065,503.398718 1991.16636,503.33512 1988.68121,503.564073 C1985.7396,503.818464 1983.21641,504.416285 1981.11164,505.357534 C1978.55041,506.527736 1976.18571,508.340276 1974.01755,510.795156 C1971.84938,513.250036 1970.42295,515.787593 1969.73827,518.407827 C1969.18038,520.44296 1969.29449,522.935998 1970.08061,525.886942 C1970.6385,527.794879 1971.19639,529.677378 1971.75428,531.534437 C1972.56576,534.358185 1972.84471,536.253403 1972.59112,537.220091 C1972.38825,537.957827 1971.77964,538.542928 1970.76529,538.975393 C1969.57344,539.458738 1968.01388,539.891203 1966.08662,540.272791 C1965.09763,540.501743 1963.61414,540.743416 1961.63616,540.997807 L1959.54407,554.429688 Z M1798.38091,501.712777 C1796.31476,510.238735 1794.65764,517.241818 1793.40954,522.722028 C1808.49522,521.669625 1817.24492,521.059231 1825.66973,520.498748 L1826.87171,520.418976 C1838.0817,519.676817 1849.22298,518.990194 1874.54407,517.429688 L1874.54407,517.429688 L1856.90041,556.429688 C1793.21149,559.192259 1755.60927,560.752155 1744.09375,561.109375 C1747.35553,549.111875 1751.58702,533.969658 1756.36777,517.114453 C1756.84616,515.427818 1757.57565,512.860888 1758.55623,509.413661 C1767.87473,509.32345 1774.78852,508.669891 1779.2976,507.452984 C1783.80668,506.236077 1790.16778,504.322675 1798.38091,501.712777 Z M2026.54407,541.429688 L2023.9593,551.239503 L1988.54407,554.429688 L1991.12884,544.619872 L2026.54407,541.429688 Z M1823.99693,331.557455 C1856.76409,328.826626 1877.84454,338.679754 1887.23828,361.116841 L1887.23828,361.116841 L1849.73727,385.694307 L1849.613,385.291381 C1845.43834,372.0697 1833.97797,366.262609 1815.23191,367.870109 C1801.10431,369.124814 1788.7519,376.062597 1778.1747,388.683458 C1769.59458,398.647296 1763.6033,409.976549 1760.20084,422.671216 C1756.87235,435.144465 1756.46553,445.55114 1758.98039,453.891241 C1762.38285,464.666947 1770.85201,469.427447 1784.38788,468.172742 C1793.11593,467.43468 1800.10576,465.921653 1805.35738,463.63366 C1817.78375,458.098195 1827.06654,444.001209 1833.20576,421.342704 C1834.09336,417.800007 1834.94397,414.03589 1835.75761,410.050355 L1835.75761,410.050355 L1876.80901,400.750773 L1851.40152,495.185813 L1812.01436,498.617802 L1816.00855,484.225591 L1815.19895,484.765876 C1799.52749,495.136358 1782.74808,501.155984 1764.86073,502.824755 C1741.93112,504.817523 1726.84195,496.477422 1719.59324,477.804452 C1713.82385,463.117017 1713.78687,445.182109 1719.48229,423.999728 C1725.39961,402.300703 1737.38218,382.668253 1755.43,365.102376 C1775.99268,345.027088 1798.84833,333.845448 1823.99693,331.557455 Z M1813.47411,374.400201 C1827.59783,372.864586 1832.56791,376.759554 1832.48249,377.028062 C1824.50848,402.173447 1816.56237,430.077178 1810.47502,452.468258 C1810.43669,452.609246 1802.06508,459.091379 1786.2951,461.094032 C1782.35631,461.594226 1778.23385,461.315203 1773.92774,460.256965 C1781.24865,430.581499 1788.20724,404.453705 1794.80351,381.873583 C1794.96313,381.327183 1799.35039,375.935815 1813.47411,374.400201 Z M1861.28707,295.109375 C1857.13968,306.606233 1853.32166,317.136371 1849.83301,326.699788 C1841.75498,325.502171 1835.68676,324.903362 1831.62837,324.903362 C1827.74197,324.903362 1821.89299,325.502171 1814.08143,326.699788 C1815.55626,322.088459 1816.47221,319.22458 1817.37067,316.389089 L1817.52035,315.916476 C1818.94248,311.423542 1820.39617,306.762351 1824.03039,295.109375 L1824.03039,295.109375 Z" id="path-1"></path>
        <filter x="-0.9%" y="-1.9%" width="103.1%" height="107.5%" filterUnits="objectBoundingBox" id="filter-2">
            <feOffset dx="4" dy="6" in="SourceAlpha" result="shadowOffsetOuter1"></feOffset>
            <feGaussianBlur stdDeviation="2" in="shadowOffsetOuter1" result="shadowBlurOuter1"></feGaussianBlur>
            <feColorMatrix values="0 0 0 0 1   0 0 0 0 0.945098039   0 0 0 0 0.2  0 0 0 1 0" type="matrix" in="shadowBlurOuter1"></feColorMatrix>
        </filter>
    </defs>
    <g id="Page-1" stroke="none" stroke-width="1" fill="none" fill-rule="evenodd">
        <g id="Artboard" transform="translate(-1715.000000, -295.000000)" fill-rule="nonzero">
            <g id="GinevarLabs_">
                <use fill="black" fill-opacity="1" filter="url(#filter-2)" xlink:href="#path-1"></use>
                <use fill="#0A0B0E" xlink:href="#path-1"></use>
            </g>
        </g>
    </g>
</svg>