<?xml version="1.0" standalone="no"?>
<!DOCTYPE svg PUBLIC "-//W3C//DTD SVG 20010904//EN"
 "http://www.w3.org/TR/2001/REC-SVG-20010904/DTD/svg10.dtd">
<svg version="1.0" xmlns="http://www.w3.org/2000/svg"
 width="1440.000000pt" height="1024.000000pt" viewBox="0 0 1440.000000 1024.000000"
 preserveAspectRatio="xMidYMid meet">

<g transform="translate(0.000000,1024.000000) scale(0.100000,-0.100000)"
fill="#000000" stroke="none">
<path d="M6245 9810 c-10 -16 3 -29 25 -23 11 3 20 1 20 -5 0 -5 -9 -12 -20
-15 -24 -6 -28 -61 -6 -89 12 -17 66 -25 78 -13 10 10 -13 120 -29 137 -17 19
-58 24 -68 8z m65 -102 c0 -23 -9 -23 -26 -1 -9 13 -9 22 -2 31 9 11 13 11 19
0 5 -7 9 -21 9 -30z"/>
<path d="M7510 9805 c0 -7 8 -18 17 -24 15 -8 16 -14 5 -43 -16 -46 -15 -78 2
-78 9 0 16 12 18 33 l4 32 19 -32 c19 -32 45 -44 45 -22 0 15 -69 132 -84 141
-17 12 -26 9 -26 -7z"/>
<path d="M3729 9773 c-3 -18 2 -61 12 -105 11 -47 12 -48 48 -48 42 0 61 14
61 46 0 31 -26 54 -61 54 -26 0 -29 3 -29 30 0 20 -5 30 -15 30 -8 0 -15 -3
-16 -7z m86 -103 c0 -8 -10 -16 -22 -18 -18 -3 -23 2 -23 18 0 16 5 21 23 18
12 -2 22 -10 22 -18z"/>
<path d="M3865 9770 c-6 -10 1 -96 11 -132 3 -10 12 -18 20 -18 12 0 13 8 8
38 -4 20 -7 56 -7 80 0 41 -17 57 -32 32z"/>
<path d="M3929 9756 c-13 -27 4 -72 34 -90 24 -15 52 4 52 35 0 18 -6 25 -25
27 -40 6 -48 22 -11 22 29 0 32 2 21 15 -20 24 -59 19 -71 -9z m56 -56 c3 -5
-1 -10 -9 -10 -9 0 -16 5 -16 10 0 6 4 10 9 10 6 0 13 -4 16 -10z"/>
<path d="M4036 9765 c-9 -25 5 -46 35 -52 36 -7 38 -23 3 -23 -35 0 -26 -24
10 -28 34 -4 59 24 45 50 -5 9 -9 28 -9 42 0 23 -4 26 -39 26 -25 0 -41 -5
-45 -15z m54 -25 c0 -5 -4 -10 -10 -10 -5 0 -10 5 -10 10 0 6 5 10 10 10 6 0
10 -4 10 -10z"/>
<path d="M4146 9765 c-4 -12 3 -15 32 -15 l37 0 -32 -20 c-18 -11 -33 -24 -33
-28 0 -18 39 -43 61 -40 33 4 37 28 5 28 -14 0 -26 5 -26 10 0 6 6 10 13 10 6
0 19 4 27 10 12 7 12 12 0 34 -10 20 -21 26 -46 26 -19 0 -34 -6 -38 -15z"/>
<path d="M4272 9768 c-18 -18 -14 -60 7 -85 24 -28 42 -29 66 -3 24 27 13 50
-25 50 -16 0 -30 5 -30 10 0 6 14 10 31 10 27 0 30 2 19 15 -15 18 -51 20 -68
3z m48 -68 c0 -5 -7 -10 -15 -10 -8 0 -15 5 -15 10 0 6 7 10 15 10 8 0 15 -4
15 -10z"/>
<path d="M4425 9734 c10 -68 14 -74 50 -74 45 0 56 17 47 70 -10 61 -32 65
-32 5 0 -59 -21 -57 -33 3 -5 28 -13 42 -24 42 -13 0 -14 -8 -8 -46z"/>
<path d="M4551 9754 c-9 -20 -9 -31 1 -51 29 -59 80 -55 86 6 6 63 -62 98 -87
45z m53 -20 c8 -22 8 -44 -2 -44 -12 0 -33 40 -27 50 9 15 22 12 29 -6z"/>
<path d="M4666 9763 c-6 -23 -1 -97 8 -112 4 -6 13 -11 21 -11 18 0 28 30 14
46 -6 7 -10 26 -9 41 1 15 2 34 1 41 -2 18 -29 14 -35 -5z"/>
<path d="M4742 9768 c-19 -19 -15 -71 8 -91 24 -20 39 -21 63 -3 34 26 15 63
-30 57 -13 -1 -23 2 -23 8 0 6 12 11 26 11 16 0 24 5 22 13 -6 17 -50 21 -66
5z m58 -68 c0 -5 -7 -10 -15 -10 -8 0 -15 5 -15 10 0 6 7 10 15 10 8 0 15 -4
15 -10z"/>
<path d="M4907 9773 c-9 -8 -9 -96 -1 -117 3 -9 12 -16 19 -16 19 0 28 36 15
60 -6 12 -8 34 -5 51 5 21 3 29 -8 29 -7 0 -17 -3 -20 -7z"/>
<path d="M4975 9713 c8 -81 13 -93 32 -93 10 0 14 7 10 20 -4 16 0 20 19 20
16 0 25 7 29 23 7 33 -9 92 -25 92 -8 0 -13 -7 -11 -15 13 -49 13 -70 -2 -70
-9 0 -19 17 -26 45 -18 71 -35 57 -26 -22z"/>
<path d="M5084 9758 c-7 -24 17 -48 48 -48 10 0 18 -4 18 -10 0 -5 -11 -10
-25 -10 -18 0 -23 -4 -19 -15 7 -18 45 -20 62 -3 15 15 16 63 2 89 -16 28 -76
27 -86 -3z m56 -12 c0 -11 -19 -15 -25 -6 -3 5 1 10 9 10 9 0 16 -2 16 -4z"/>
<path d="M5217 9773 c-9 -8 -9 -96 -1 -117 3 -9 12 -16 19 -16 22 0 26 34 8
70 -12 24 -13 35 -5 38 16 5 15 32 -1 32 -8 0 -17 -3 -20 -7z"/>
<path d="M5324 9758 c-7 -24 17 -48 48 -48 10 0 18 -4 18 -10 0 -5 -12 -10
-26 -10 -31 0 -28 -24 5 -28 31 -5 51 15 51 50 0 48 -16 68 -55 68 -26 0 -35
-5 -41 -22z m56 -12 c0 -11 -19 -15 -25 -6 -3 5 1 10 9 10 9 0 16 -2 16 -4z"/>
<path d="M5447 9762 c-22 -25 -21 -44 4 -76 23 -29 50 -34 69 -11 13 16 6 19
-32 16 -14 -2 -18 5 -18 28 0 27 4 31 26 31 22 0 25 2 14 15 -17 20 -43 19
-63 -3z"/>
<path d="M5552 9768 c-31 -31 -2 -108 40 -108 21 0 46 30 27 31 -8 1 -21 2
-29 3 -8 0 -16 13 -18 29 -3 23 0 27 24 27 22 0 25 2 14 15 -15 18 -42 19 -58
3z"/>
<path d="M5657 9762 c-22 -25 -21 -44 4 -76 33 -41 79 -29 79 21 0 23 -8 27
-42 24 -10 -1 -18 3 -18 8 0 6 12 11 26 11 22 0 25 2 14 15 -17 20 -43 19 -63
-3z m53 -62 c0 -5 -7 -10 -15 -10 -8 0 -15 5 -15 10 0 6 7 10 15 10 8 0 15 -4
15 -10z"/>
<path d="M5760 9765 c-11 -13 -8 -15 19 -15 35 0 42 -15 11 -23 -43 -11 -14
-72 31 -65 33 4 36 28 5 28 -14 0 -26 5 -26 10 0 6 9 10 20 10 28 0 36 27 15
50 -21 24 -58 26 -75 5z"/>
<path d="M5870 9765 c-11 -13 -8 -15 19 -15 35 0 42 -15 11 -23 -22 -6 -27
-36 -8 -55 17 -17 55 -15 62 3 4 11 -1 15 -19 15 -14 0 -25 5 -25 10 0 6 9 10
20 10 23 0 28 38 8 58 -17 17 -53 15 -68 -3z"/>
<path d="M6021 9763 c1 -31 24 -94 34 -96 6 -1 9 15 7 38 -4 56 -11 75 -28 75
-8 0 -14 -8 -13 -17z"/>
<path d="M6086 9765 c-4 -12 3 -15 32 -16 l37 0 -32 -16 c-37 -19 -41 -33 -15
-56 23 -21 58 -22 66 -2 4 11 -1 15 -19 15 -14 0 -25 5 -25 10 0 6 6 10 14 10
7 0 19 7 26 15 10 13 10 19 -5 35 -21 24 -70 27 -79 5z"/>
<path d="M6365 9729 c9 -69 10 -69 51 -69 36 0 47 19 15 27 -12 3 -25 21 -33
46 -7 22 -19 43 -27 45 -11 4 -12 -6 -6 -49z"/>
<path d="M6461 9766 c-17 -20 -2 -46 30 -53 36 -7 38 -23 3 -23 -36 0 -25 -24
13 -28 38 -4 48 18 38 78 -6 37 -9 40 -40 40 -18 0 -38 -6 -44 -14z m49 -26
c0 -5 -4 -10 -9 -10 -6 0 -13 5 -16 10 -3 6 1 10 9 10 9 0 16 -4 16 -10z"/>
<path d="M6570 9758 c0 -13 3 -40 7 -61 6 -37 6 -38 47 -35 40 3 41 4 44 43 3
43 -17 83 -37 71 -8 -5 -8 -13 -1 -26 15 -27 12 -60 -4 -60 -10 0 -17 16 -22
45 -7 47 -34 65 -34 23z"/>
<path d="M6704 9768 c-8 -13 -7 -82 2 -110 3 -10 11 -18 19 -18 22 0 26 34 8
70 -12 24 -13 35 -5 38 17 5 15 32 -2 32 -8 0 -18 -5 -22 -12z"/>
<path d="M6772 9768 c-19 -19 -14 -63 11 -86 29 -27 39 -27 62 -2 24 27 13 50
-25 50 -16 0 -30 5 -30 10 0 6 14 10 31 10 27 0 30 2 19 15 -15 18 -51 20 -68
3z m48 -68 c0 -5 -4 -10 -10 -10 -5 0 -10 5 -10 10 0 6 5 10 10 10 6 0 10 -4
10 -10z"/>
<path d="M6877 9758 c-13 -48 12 -98 48 -98 14 0 25 -7 28 -20 3 -11 13 -20
22 -20 13 0 16 6 11 23 -3 12 -11 48 -17 80 l-12 57 -37 0 c-30 0 -39 -4 -43
-22z m57 -30 c3 -13 1 -27 -3 -31 -11 -11 -35 29 -26 43 10 17 22 11 29 -12z"/>
<path d="M7050 9765 c-11 -13 -8 -15 19 -15 35 0 42 -15 11 -23 -22 -6 -27
-36 -8 -55 17 -17 55 -15 62 3 4 11 -1 15 -19 15 -14 0 -25 5 -25 10 0 6 9 10
20 10 23 0 28 38 8 58 -17 17 -53 15 -68 -3z"/>
<path d="M7167 9774 c-15 -15 -7 -81 11 -97 26 -24 47 -21 66 9 16 24 16 27
-1 57 -18 31 -59 47 -76 31z m46 -46 c7 -25 0 -41 -14 -33 -12 8 -12 55 0 55
5 0 11 -10 14 -22z"/>
<path d="M7273 9765 c-7 -19 16 -133 28 -141 18 -10 29 7 19 27 -6 10 -11 44
-12 74 -1 39 -6 55 -15 55 -8 0 -16 -7 -20 -15z"/>
<path d="M7353 9773 c-20 -8 -16 -77 5 -96 24 -22 45 -21 67 3 24 27 13 50
-25 50 -16 0 -30 5 -30 10 0 6 11 10 25 10 18 0 23 4 19 15 -6 15 -36 19 -61
8z m47 -73 c0 -5 -7 -10 -15 -10 -8 0 -15 5 -15 10 0 6 7 10 15 10 8 0 15 -4
15 -10z"/>
<path d="M7454 9765 c-6 -14 -3 -39 12 -112 4 -19 12 -33 21 -33 12 0 13 8 7
43 -5 23 -8 59 -7 80 1 38 -21 53 -33 22z"/>
<path d="M7687 9773 c-9 -8 -9 -96 -1 -117 3 -9 12 -16 19 -16 19 0 28 36 15
60 -6 12 -8 34 -5 51 5 21 3 29 -8 29 -7 0 -17 -3 -20 -7z"/>
<path d="M7762 9768 c-30 -30 0 -108 42 -108 19 0 46 33 46 56 -1 46 -60 80
-88 52z m46 -30 c16 -16 15 -48 -2 -48 -14 0 -26 21 -26 46 0 17 12 18 28 2z"/>
<path d="M7927 9773 c-9 -8 -9 -96 -1 -117 3 -9 12 -16 19 -16 19 0 28 36 15
60 -6 12 -8 34 -5 51 5 21 3 29 -8 29 -7 0 -17 -3 -20 -7z"/>
<path d="M7983 9758 c3 -13 9 -49 12 -80 5 -39 12 -58 21 -58 8 0 14 9 14 19
0 13 8 21 23 23 25 3 32 31 22 84 -3 21 -12 34 -21 34 -12 0 -14 -8 -8 -45 4
-31 3 -45 -5 -45 -6 0 -16 20 -23 45 -7 26 -18 45 -26 45 -10 0 -12 -7 -9 -22z"/>
<path d="M8110 9759 c-26 -47 27 -119 68 -93 24 15 27 71 6 95 -23 25 -60 24
-74 -2z m58 -42 c2 -19 -1 -27 -12 -27 -11 0 -16 10 -16 31 0 38 24 35 28 -4z"/>
<path d="M8223 9773 c-24 -9 -13 -23 20 -23 l32 0 -30 -24 c-30 -24 -30 -24
-10 -45 12 -14 28 -21 44 -19 34 4 40 28 7 28 -33 0 -34 16 -1 24 30 8 32 26
7 49 -18 17 -45 20 -69 10z"/>
<path d="M8337 9759 c-17 -20 -17 -23 -2 -56 9 -19 24 -37 32 -40 25 -10 48
11 48 43 0 23 -4 29 -22 29 -11 0 -25 3 -29 8 -4 4 8 7 27 7 32 1 33 1 15 15
-27 21 -48 19 -69 -6z m53 -59 c0 -5 -4 -10 -10 -10 -5 0 -10 5 -10 10 0 6 5
10 10 10 6 0 10 -4 10 -10z"/>
<path d="M8516 9768 c-20 -76 -22 -97 -10 -102 16 -6 24 3 24 26 0 27 17 22
24 -7 9 -36 34 -31 39 8 l4 32 13 -32 c8 -18 20 -33 27 -33 19 0 16 14 -12 70
-26 52 -45 64 -45 31 0 -31 -19 -35 -30 -7 -10 27 -28 34 -34 14z"/>
<path d="M8658 9775 c-8 -8 8 -95 20 -107 19 -19 24 -2 15 53 -7 47 -21 68
-35 54z"/>
<path d="M8727 9773 c-9 -8 -9 -96 -1 -117 3 -9 12 -16 19 -16 19 0 28 36 15
60 -6 12 -8 34 -5 51 5 21 3 29 -8 29 -7 0 -17 -3 -20 -7z"/>
<path d="M8795 9715 c8 -83 13 -95 32 -95 10 0 14 7 10 20 -4 16 0 20 19 20
16 0 25 7 29 23 7 33 -9 92 -25 92 -8 0 -13 -7 -11 -15 13 -49 13 -70 -1 -70
-10 0 -19 16 -24 42 -5 23 -15 43 -23 46 -11 4 -12 -8 -6 -63z"/>
<path d="M8961 9766 c-17 -20 -2 -46 30 -53 36 -7 38 -23 3 -23 -36 0 -25 -24
13 -28 38 -4 48 18 38 78 -6 37 -9 40 -40 40 -18 0 -38 -6 -44 -14z m49 -26
c0 -5 -4 -10 -9 -10 -6 0 -13 5 -16 10 -3 6 1 10 9 10 9 0 16 -4 16 -10z"/>
<path d="M9146 9758 c-12 -59 -15 -86 -9 -92 10 -10 33 15 33 38 0 17 4 15 16
-11 17 -33 28 -40 38 -24 8 12 -46 111 -61 111 -7 0 -15 -10 -17 -22z"/>
<path d="M9236 9765 c-9 -23 4 -45 30 -51 30 -8 32 -24 3 -24 -32 0 -17 -25
18 -28 37 -4 45 12 36 73 -6 44 -6 45 -43 45 -24 0 -40 -5 -44 -15z m54 -25
c0 -5 -4 -10 -9 -10 -6 0 -13 5 -16 10 -3 6 1 10 9 10 9 0 16 -4 16 -10z"/>
<path d="M9355 9770 c-6 -10 1 -96 11 -132 3 -10 12 -18 20 -18 12 0 14 7 9
29 -3 16 -7 52 -7 80 -1 49 -17 68 -33 41z"/>
<path d="M9419 9773 c-2 -17 2 -79 7 -95 3 -10 12 -18 21 -18 12 0 14 9 8 53
-8 57 -12 67 -26 67 -5 0 -9 -3 -10 -7z"/>
<path d="M9476 9764 c-18 -46 9 -104 48 -104 15 0 26 -7 29 -20 3 -11 12 -20
21 -20 18 0 22 25 6 35 -5 3 -10 19 -10 34 0 16 -3 43 -6 60 -6 28 -10 31 -44
31 -25 0 -40 -5 -44 -16z m56 -31 c3 -10 3 -24 0 -31 -6 -19 -32 5 -32 29 0
24 26 25 32 2z"/>
<path d="M9643 9738 c16 -123 14 -118 68 -118 37 0 49 4 49 15 0 10 -11 15
-35 15 -39 0 -50 26 -13 32 28 4 36 28 10 28 -31 0 -52 11 -52 26 0 9 12 14
36 14 55 0 37 24 -20 28 l-48 3 5 -43z"/>
<path d="M9782 9768 c-24 -24 -9 -148 19 -148 8 0 9 18 4 59 -11 98 36 93 51
-6 6 -39 26 -65 40 -51 9 10 -29 133 -45 145 -21 16 -54 16 -69 1z"/>
<path d="M9983 9748 c3 -18 9 -48 13 -65 6 -29 4 -33 -14 -33 -15 0 -20 -5
-16 -15 8 -21 114 -22 114 -1 0 8 -10 16 -22 18 -23 3 -27 13 -44 106 -2 12
-12 22 -20 22 -13 0 -15 -7 -11 -32z"/>
<path d="M10068 9775 c-9 -9 62 -146 78 -152 24 -9 32 7 39 85 6 62 5 72 -9
72 -9 0 -16 -7 -16 -15 0 -9 -9 -15 -24 -15 -13 0 -29 7 -36 15 -13 16 -23 19
-32 10z m82 -76 c0 -11 -4 -17 -10 -14 -5 3 -10 13 -10 21 0 8 5 14 10 14 6 0
10 -9 10 -21z"/>
<path d="M10210 9767 c0 -7 9 -23 20 -35 21 -22 28 -82 10 -82 -5 0 -10 -7
-10 -15 0 -21 26 -19 43 5 13 19 13 19 27 0 8 -11 22 -20 32 -20 22 0 24 16 3
24 -8 3 -15 12 -15 20 0 8 -6 16 -12 19 -10 3 -10 11 0 39 6 19 12 40 12 46 0
20 -28 13 -35 -8 -3 -11 -10 -20 -13 -20 -4 0 -15 9 -25 20 -19 23 -37 26 -37
7z"/>
<path d="M10398 9775 c-3 -3 -1 -25 3 -48 5 -23 12 -57 15 -74 4 -18 13 -33
20 -33 17 0 17 2 2 90 -11 62 -23 82 -40 65z"/>
<path d="M10458 9773 c-2 -5 0 -41 5 -80 l9 -73 42 0 c35 0 45 4 53 23 15 34
4 99 -21 119 -21 18 -82 25 -88 11z m72 -42 c5 -11 10 -33 10 -50 0 -24 -4
-31 -20 -31 -13 0 -20 7 -20 19 0 10 -3 33 -6 50 -5 24 -3 31 9 31 9 0 21 -9
27 -19z"/>
<path d="M10590 9765 c0 -8 7 -15 15 -15 9 0 12 6 9 15 -4 8 -10 15 -15 15 -5
0 -9 -7 -9 -15z"/>
<path d="M6050 9635 c0 -8 7 -15 15 -15 8 0 15 7 15 15 0 8 -7 15 -15 15 -8 0
-15 -7 -15 -15z"/>
<path d="M8680 9635 c0 -9 5 -15 11 -13 6 2 11 8 11 13 0 5 -5 11 -11 13 -6 2
-11 -4 -11 -13z"/>
<path d="M9430 9635 c0 -8 7 -15 15 -15 8 0 15 7 15 15 0 8 -7 15 -15 15 -8 0
-15 -7 -15 -15z"/>
<path d="M7445 9230 c-3 -6 5 -10 19 -10 36 0 41 -17 7 -23 -33 -7 -47 -41
-31 -81 8 -21 16 -26 45 -26 l35 0 0 63 c0 36 -5 68 -12 75 -15 15 -54 16 -63
2z m55 -85 c0 -28 -12 -38 -34 -29 -19 7 -22 50 -3 57 21 7 37 -4 37 -28z"/>
<path d="M6670 9175 c0 -17 8 -29 25 -37 14 -6 25 -14 25 -18 0 -15 -14 -19
-31 -9 -15 7 -19 6 -19 -6 0 -18 50 -21 68 -3 7 7 12 31 12 55 l0 43 -40 0
c-36 0 -40 -2 -40 -25z m55 -15 c-6 -10 -45 -1 -45 10 0 13 24 18 37 8 7 -6
11 -14 8 -18z"/>
<path d="M6784 9186 c-3 -8 -4 -31 -2 -52 3 -36 6 -39 35 -42 23 -2 33 -9 36
-25 2 -12 5 13 6 56 l1 77 -35 0 c-21 0 -38 -6 -41 -14z m64 -37 c2 -18 -3
-29 -15 -33 -25 -10 -46 20 -32 46 14 27 43 19 47 -13z"/>
<path d="M6924 9183 c-3 -10 -12 -33 -20 -52 -8 -18 -13 -36 -10 -38 10 -10
25 8 31 37 9 39 20 38 31 -2 5 -17 16 -34 23 -36 11 -4 12 0 6 14 -4 11 -13
35 -20 54 -15 40 -32 50 -41 23z"/>
<path d="M7010 9181 c-8 -16 -6 -23 12 -35 12 -9 28 -16 35 -16 7 0 10 -7 7
-15 -5 -11 -11 -12 -25 -4 -15 8 -19 6 -19 -6 0 -12 8 -15 33 -13 31 3 32 4
35 56 l3 52 -35 0 c-25 0 -38 -6 -46 -19z m58 -14 c4 -19 -6 -21 -27 -8 -16
10 -5 34 12 28 7 -2 13 -11 15 -20z"/>
<path d="M7130 9145 l0 -56 38 3 37 3 1 55 c1 32 -1 40 -3 18 -5 -43 -29 -70
-44 -47 -5 8 -9 26 -9 41 0 15 -4 30 -10 33 -6 4 -10 -15 -10 -50z"/>
<path d="M7260 9162 c0 -21 -6 -44 -12 -50 -9 -9 -10 -15 -2 -20 6 -4 14 -14
17 -22 4 -12 6 -11 6 3 1 9 6 17 13 17 9 0 9 3 0 12 -17 17 -15 58 5 80 15 17
15 18 -5 18 -19 0 -22 -6 -22 -38z"/>
<path d="M7320 9181 c-8 -16 -6 -23 12 -35 12 -9 28 -16 36 -16 7 0 10 -5 6
-11 -3 -6 -15 -9 -25 -6 -12 3 -19 0 -19 -10 0 -10 9 -13 33 -11 31 3 32 4 35
56 l3 52 -35 0 c-25 0 -38 -6 -46 -19z m58 -14 c4 -19 -6 -21 -27 -8 -16 10
-5 34 12 28 7 -2 13 -11 15 -20z"/>
<path d="M7562 9188 c-15 -15 -16 -70 0 -86 19 -19 56 -14 68 8 14 26 5 40
-24 40 -29 0 -39 10 -25 26 8 10 16 11 31 3 16 -9 19 -8 16 3 -6 17 -50 22
-66 6z m53 -68 c-3 -5 -12 -10 -20 -10 -8 0 -17 5 -20 10 -4 6 5 10 20 10 15
0 24 -4 20 -10z"/>
<path d="M7670 9191 c0 -6 5 -13 10 -16 6 -3 10 1 10 9 0 9 -4 16 -10 16 -5 0
-10 -4 -10 -9z"/>
<path d="M3210 8814 l0 -75 42 3 c36 3 44 7 52 30 13 37 -9 78 -41 78 -16 0
-23 6 -23 20 0 11 -7 20 -15 20 -12 0 -15 -15 -15 -76z m68 -22 c3 -27 0 -32
-17 -32 -16 0 -21 6 -21 28 0 53 33 56 38 4z"/>
<path d="M4640 8883 c0 -5 4 -13 9 -18 6 -6 12 -37 14 -70 3 -51 4 -49 3 14
-1 50 -5 76 -13 79 -7 2 -13 0 -13 -5z"/>
<path d="M4830 8881 c0 -5 7 -14 15 -21 10 -8 12 -18 6 -29 -15 -28 -30 -91
-21 -91 4 0 13 14 19 31 11 32 31 32 31 -1 0 -10 7 -21 16 -24 13 -5 14 -1 9
27 -4 17 -11 34 -15 37 -4 3 -10 18 -14 35 -7 28 -21 44 -38 45 -5 0 -8 -4 -8
-9z"/>
<path d="M7231 8818 l-1 -78 35 0 c29 0 37 5 46 27 16 41 -1 77 -39 81 -22 2
-32 9 -35 25 -2 12 -5 -13 -6 -55z m53 6 c21 -8 21 -53 0 -61 -24 -9 -46 24
-33 48 11 21 11 21 33 13z"/>
<path d="M7481 8818 l-1 -78 35 0 c29 0 37 5 46 27 14 38 -6 83 -38 83 -15 0
-27 8 -33 23 -6 16 -9 1 -9 -55z m59 -3 c16 -19 3 -57 -18 -53 -18 3 -27 30
-18 54 7 18 20 18 36 -1z"/>
<path d="M8037 8883 c-14 -13 -7 -25 12 -20 10 2 24 1 31 -3 7 -4 0 -9 -18
-13 -34 -7 -48 -41 -32 -81 8 -21 16 -26 45 -26 l35 0 0 63 c0 36 -5 68 -12
75 -13 13 -50 16 -61 5z m51 -90 c-2 -20 -9 -28 -23 -28 -14 0 -21 8 -23 28
-3 23 0 27 23 27 23 0 26 -4 23 -27z"/>
<path d="M8660 8874 c0 -10 6 -14 15 -10 19 7 47 -3 40 -15 -3 -4 -12 -6 -19
-3 -20 8 -46 -24 -46 -55 0 -36 21 -53 57 -49 26 3 28 7 31 49 4 68 -11 99
-48 99 -21 0 -30 -5 -30 -16z m58 -81 c-2 -20 -9 -28 -23 -28 -14 0 -21 8 -23
28 -3 23 0 27 23 27 23 0 26 -4 23 -27z"/>
<path d="M9540 8814 l0 -75 43 3 c38 3 42 6 45 32 6 53 -5 76 -38 76 -23 0
-30 4 -30 20 0 11 -4 20 -10 20 -6 0 -10 -32 -10 -76z m65 5 c12 -19 -4 -61
-23 -57 -30 6 -28 68 2 68 8 0 18 -5 21 -11z"/>
<path d="M10320 8875 c0 -7 4 -16 9 -20 6 -3 2 -28 -9 -60 -10 -30 -15 -55 -9
-55 5 0 12 8 16 18 15 41 26 44 41 10 11 -24 16 -28 19 -16 2 9 -2 29 -10 45
-8 15 -17 40 -21 54 -6 29 -36 48 -36 24z"/>
<path d="M8140 8846 c0 -14 5 -26 10 -26 6 0 10 9 10 19 0 11 -4 23 -10 26 -6
4 -10 -5 -10 -19z"/>
<path d="M2760 8775 l0 -75 53 1 c51 2 51 2 12 8 -32 5 -41 11 -43 29 -3 19 1
22 27 22 17 0 31 5 31 10 0 6 -14 10 -31 10 -26 0 -30 3 -27 23 2 17 11 23 36
25 48 5 39 22 -13 22 l-45 0 0 -75z"/>
<path d="M2890 8824 c-13 -32 -13 -71 -1 -79 6 -3 11 14 13 37 4 57 31 60 38
4 8 -64 30 -58 30 8 l0 56 -35 0 c-29 0 -37 -5 -45 -26z"/>
<path d="M3000 8795 l0 -55 35 0 c19 0 35 5 35 10 0 6 -9 10 -20 10 -17 0 -20
7 -20 45 0 33 -4 45 -15 45 -12 0 -15 -13 -15 -55z"/>
<path d="M3099 8823 c-13 -36 2 -77 30 -81 30 -5 51 15 51 48 0 46 -10 60 -41
60 -23 0 -32 -6 -40 -27z m60 -12 c13 -24 -9 -57 -33 -48 -19 7 -22 53 -3 60
21 9 26 7 36 -12z"/>
<path d="M3338 8825 c-16 -35 0 -79 30 -83 28 -4 52 14 52 39 0 14 -7 19 -29
19 -33 0 -49 15 -27 23 8 3 24 3 35 0 17 -4 20 -2 15 11 -10 27 -62 21 -76 -9z
m57 -55 c-3 -5 -12 -10 -20 -10 -8 0 -17 5 -20 10 -4 6 5 10 20 10 15 0 24 -4
20 -10z"/>
<path d="M3450 8821 c0 -25 5 -31 30 -36 24 -5 29 -10 20 -20 -6 -7 -21 -11
-33 -8 -17 4 -19 3 -11 -6 6 -7 24 -11 40 -9 27 3 29 6 32 56 l3 52 -40 0
c-39 0 -41 -2 -41 -29z m55 0 c3 -5 1 -12 -4 -15 -13 -8 -42 4 -35 15 7 12 31
12 39 0z"/>
<path d="M3560 8795 c0 -54 0 -55 29 -55 53 0 61 8 61 61 0 60 -18 65 -22 7
-2 -31 -8 -44 -20 -46 -15 -3 -18 4 -18 42 0 34 -4 46 -15 46 -12 0 -15 -13
-15 -55z"/>
<path d="M3759 8834 c-16 -19 -26 -134 -11 -134 5 0 12 25 14 56 5 58 17 75
49 67 16 -5 19 -15 19 -64 0 -33 4 -59 10 -59 13 0 13 106 0 131 -13 23 -62
26 -81 3z"/>
<path d="M3886 8839 c-4 -9 -6 -34 -4 -55 3 -42 18 -51 64 -40 21 6 24 12 24
56 0 28 -4 50 -10 50 -5 0 -10 -18 -10 -40 0 -27 -5 -43 -15 -47 -22 -8 -28 1
-35 50 -5 29 -9 37 -14 26z"/>
<path d="M4010 8795 c0 -30 5 -55 10 -55 6 0 10 25 10 55 0 30 -4 55 -10 55
-5 0 -10 -25 -10 -55z"/>
<path d="M4067 8832 c-23 -25 -21 -55 3 -77 44 -40 98 13 71 71 -13 29 -51 32
-74 6z m51 -40 c3 -27 0 -32 -17 -32 -16 0 -21 6 -21 28 0 53 33 56 38 4z"/>
<path d="M4180 8796 l0 -56 35 0 c24 0 37 6 45 19 13 25 13 78 0 86 -6 4 -10
-6 -10 -24 0 -39 -9 -61 -25 -61 -15 0 -25 22 -25 55 0 13 -4 27 -10 30 -6 4
-10 -15 -10 -49z"/>
<path d="M4300 8835 c0 -8 5 -15 10 -15 6 0 10 7 10 15 0 8 -4 15 -10 15 -5 0
-10 -7 -10 -15z"/>
<path d="M4410 8775 l0 -75 48 1 c44 2 45 2 12 8 -26 4 -36 12 -38 29 -3 19 1
22 27 22 17 0 31 5 31 10 0 6 -14 10 -31 10 -26 0 -30 3 -27 23 2 17 11 23 36
25 48 5 39 22 -13 22 l-45 0 0 -75z"/>
<path d="M4530 8795 l0 -55 33 0 c44 0 57 15 57 67 0 56 -18 56 -22 1 -2 -31
-8 -44 -20 -46 -15 -3 -18 4 -18 42 0 34 -4 46 -15 46 -12 0 -15 -13 -15 -55z"/>
<path d="M4722 8838 c-7 -7 -12 -29 -12 -50 0 -32 4 -39 27 -44 35 -9 57 7 61
45 5 49 -44 81 -76 49z m53 -27 c8 -26 -5 -53 -24 -49 -29 6 -27 68 3 68 8 0
17 -8 21 -19z"/>
<path d="M4995 8828 c-5 -27 -9 -75 -7 -100 2 -22 22 -24 22 -3 0 8 5 15 12
15 9 0 9 3 0 12 -15 15 -16 64 -2 73 15 9 12 25 -5 25 -8 0 -17 -10 -20 -22z"/>
<path d="M5068 8844 c-12 -11 -10 -144 2 -144 6 0 10 9 10 20 0 13 7 20 19 20
42 0 51 10 51 61 0 27 -4 49 -10 49 -5 0 -10 -18 -10 -40 0 -27 -5 -43 -15
-47 -22 -8 -28 1 -34 48 -3 22 -9 37 -13 33z"/>
<path d="M5188 8825 c-17 -38 0 -79 34 -83 19 -2 30 3 38 18 14 26 5 40 -25
40 -13 0 -26 4 -30 9 -7 12 31 25 45 16 5 -3 10 1 10 9 0 11 -10 16 -30 16
-23 0 -33 -6 -42 -25z m52 -60 c-10 -12 -16 -13 -26 -4 -20 16 -18 19 12 19
22 0 25 -2 14 -15z"/>
<path d="M5361 8773 c1 -43 4 -68 6 -55 3 17 11 22 34 22 38 0 56 39 38 82 -9
23 -18 28 -45 28 l-34 0 1 -77z m59 42 c12 -15 5 -55 -10 -55 -48 0 -57 63 -9
69 4 1 12 -6 19 -14z"/>
<path d="M5482 8838 c-7 -7 -12 -26 -12 -43 0 -36 15 -55 45 -55 26 0 45 18
45 41 0 13 -10 19 -32 21 -18 2 -32 8 -30 13 2 6 16 9 33 7 31 -2 40 12 13 22
-25 9 -49 7 -62 -6z m53 -68 c-3 -5 -12 -10 -20 -10 -8 0 -17 5 -20 10 -4 6 5
10 20 10 15 0 24 -4 20 -10z"/>
<path d="M5590 8794 l0 -55 38 3 c33 3 38 6 46 39 5 20 5 45 1 55 -7 15 -10
10 -15 -23 -7 -49 -13 -58 -35 -50 -10 4 -15 20 -15 47 0 22 -4 40 -10 40 -5
0 -10 -25 -10 -56z"/>
<path d="M5724 8843 c-12 -8 -17 -31 -15 -70 2 -46 81 -38 81 8 0 15 -7 19
-31 19 -20 0 -29 4 -26 13 2 6 16 11 31 10 17 -1 26 2 23 10 -4 14 -47 21 -63
10z m46 -73 c0 -5 -9 -10 -20 -10 -11 0 -20 5 -20 10 0 6 9 10 20 10 11 0 20
-4 20 -10z"/>
<path d="M5828 8798 c-5 -64 8 -98 36 -98 19 1 19 2 4 11 -10 5 -18 14 -18 19
0 6 8 10 18 10 16 1 16 1 0 11 -13 7 -18 23 -18 54 0 63 -17 56 -22 -7z"/>
<path d="M5894 8836 c-9 -24 0 -89 14 -94 8 -3 12 12 12 52 0 53 -14 74 -26
42z"/>
<path d="M5956 8828 c-3 -13 -6 -44 -6 -70 0 -36 4 -48 15 -48 8 0 15 6 15 13
1 6 2 38 3 70 2 58 -15 80 -27 35z"/>
<path d="M6085 8827 c-4 -14 -5 -38 -3 -53 3 -26 7 -29 38 -29 l35 0 0 50 c0
49 -1 50 -32 53 -27 3 -33 -1 -38 -21z m49 -3 c21 -8 21 -50 0 -58 -32 -12
-57 27 -32 52 14 14 12 14 32 6z"/>
<path d="M6197 8793 c-6 -60 4 -93 30 -93 13 0 13 3 2 16 -10 13 -10 17 2 25
10 6 10 9 2 9 -9 0 -13 17 -13 50 0 68 -16 63 -23 -7z"/>
<path d="M6326 8818 c-12 -70 -10 -108 4 -108 6 0 10 7 10 15 0 8 5 15 12 15
9 0 9 3 0 12 -15 15 -16 64 -2 73 15 9 12 25 -5 25 -8 0 -16 -13 -19 -32z"/>
<path d="M6397 8843 c-17 -16 -5 -45 23 -57 31 -13 30 -26 -2 -26 -10 0 -18
-5 -18 -11 0 -6 14 -9 33 -7 31 3 32 4 35 56 l3 52 -34 0 c-18 0 -37 -3 -40
-7z m44 -28 c-1 -15 -24 -12 -29 3 -3 9 2 13 12 10 10 -1 17 -7 17 -13z"/>
<path d="M6500 8843 c1 -5 7 -19 14 -32 12 -21 12 -28 -1 -48 -18 -27 -8 -30
19 -6 10 9 18 11 18 6 0 -6 7 -13 15 -17 19 -7 19 8 1 27 -13 13 -13 17 -1 33
23 31 19 51 -6 28 -20 -18 -22 -18 -34 -1 -13 18 -25 23 -25 10z"/>
<path d="M6711 8831 c-27 -49 -3 -99 43 -87 44 11 45 56 1 56 -13 0 -26 4 -29
9 -8 12 20 22 40 14 12 -4 15 -2 12 8 -7 23 -55 23 -67 0z m49 -65 c-6 -8 -18
-12 -26 -9 -23 9 -16 23 12 23 22 0 24 -2 14 -14z"/>
<path d="M6810 8843 c1 -5 7 -19 14 -32 12 -21 12 -28 -1 -48 -18 -27 -8 -30
19 -6 10 9 18 11 18 6 0 -6 7 -13 15 -17 19 -7 19 8 1 27 -13 13 -13 17 -1 33
23 31 19 51 -6 28 -20 -18 -22 -18 -34 -1 -13 18 -25 23 -25 10z"/>
<path d="M6932 8838 c-6 -6 -12 -29 -12 -50 0 -32 4 -39 25 -44 36 -9 55 2 55
30 0 19 -6 25 -25 28 -33 4 -32 24 1 21 16 -1 24 3 21 10 -5 17 -50 20 -65 5z
m53 -68 c-3 -5 -12 -10 -20 -10 -8 0 -17 5 -20 10 -4 6 5 10 20 10 15 0 24 -4
20 -10z"/>
<path d="M7040 8795 l0 -54 66 1 c42 1 71 6 80 15 19 20 19 93 -1 93 -11 0
-15 -12 -15 -45 0 -38 -3 -45 -20 -45 -17 0 -20 7 -20 46 0 59 -24 55 -28 -5
-3 -33 -7 -42 -20 -39 -12 2 -18 15 -20 46 -5 61 -22 52 -22 -13z"/>
<path d="M7355 8828 c-5 -27 -9 -75 -7 -100 2 -22 22 -24 22 -3 0 8 5 15 12
15 9 0 9 3 0 12 -15 15 -16 64 -2 73 15 9 12 25 -5 25 -8 0 -17 -10 -20 -22z"/>
<path d="M7594 8836 c-3 -8 -4 -31 -2 -52 3 -36 6 -39 36 -42 18 -2 32 1 32 7
0 6 -9 11 -20 11 -17 0 -20 7 -20 45 0 43 -15 61 -26 31z"/>
<path d="M7693 8795 c0 -33 2 -45 4 -27 2 18 2 45 0 60 -2 15 -4 0 -4 -33z"/>
<path d="M7747 8830 c-36 -43 -3 -100 50 -84 l28 8 -33 4 c-31 3 -33 6 -30 35
3 28 6 32 31 29 29 -3 37 12 11 22 -26 10 -39 7 -57 -14z"/>
<path d="M7850 8795 c0 -30 5 -55 10 -55 6 0 10 25 10 55 0 30 -4 55 -10 55
-5 0 -10 -25 -10 -55z"/>
<path d="M7900 8795 c0 -54 0 -55 29 -55 53 0 61 8 61 61 0 60 -18 65 -22 7
-2 -31 -8 -44 -20 -46 -15 -3 -18 4 -18 42 0 34 -4 46 -15 46 -12 0 -15 -13
-15 -55z"/>
<path d="M8263 8843 c-8 -3 -13 -23 -13 -48 0 -44 10 -55 51 -55 12 0 19 -7
19 -20 0 -11 5 -20 10 -20 6 0 10 32 10 75 l0 75 -32 -1 c-18 0 -39 -3 -45 -6z
m52 -32 c8 -26 -5 -53 -24 -49 -29 6 -27 68 3 68 8 0 17 -8 21 -19z"/>
<path d="M8380 8831 c-14 -26 -13 -64 2 -79 19 -19 56 -14 68 8 14 26 5 40
-25 40 -13 0 -26 4 -30 9 -7 12 31 25 45 16 5 -3 10 1 10 9 0 24 -57 21 -70
-3z m50 -65 c-6 -8 -18 -12 -26 -9 -23 9 -16 23 12 23 22 0 24 -2 14 -14z"/>
<path d="M8487 8843 c-16 -15 -5 -24 22 -18 40 9 46 -8 10 -24 -22 -10 -29
-19 -27 -35 3 -24 44 -35 62 -16 8 9 5 11 -13 8 -13 -1 -26 3 -28 10 -3 6 2
12 10 12 28 0 48 29 37 51 -10 19 -59 27 -73 12z"/>
<path d="M8600 8795 c0 -30 5 -55 10 -55 6 0 10 25 10 55 0 30 -4 55 -10 55
-5 0 -10 -25 -10 -55z"/>
<path d="M8770 8795 l0 -55 33 0 c18 0 38 5 45 12 14 14 16 98 2 98 -5 0 -10
-18 -10 -40 0 -28 -5 -43 -16 -47 -21 -8 -34 13 -34 55 0 17 -4 32 -10 32 -5
0 -10 -25 -10 -55z"/>
<path d="M8900 8831 c-26 -49 -1 -98 44 -87 44 11 45 56 1 56 -13 0 -26 4 -29
9 -8 12 20 22 39 15 9 -4 15 0 15 10 0 24 -56 21 -70 -3z m50 -65 c-6 -8 -18
-12 -26 -9 -23 9 -16 23 12 23 22 0 24 -2 14 -14z"/>
<path d="M9023 8843 c-8 -3 -13 -23 -13 -48 0 -44 10 -55 51 -55 12 0 19 -7
19 -20 0 -11 5 -20 10 -20 6 0 10 32 10 75 l0 75 -32 -1 c-18 0 -39 -3 -45 -6z
m49 -30 c7 -30 -4 -54 -21 -51 -29 6 -27 68 3 68 8 0 16 -8 18 -17z"/>
<path d="M9190 8831 c-5 -11 -10 -42 -10 -70 0 -39 4 -51 15 -51 8 0 15 6 15
13 1 6 2 38 3 70 2 59 -5 71 -23 38z"/>
<path d="M9262 8838 c-17 -17 -15 -73 2 -88 42 -34 92 22 68 75 -13 27 -49 34
-70 13z m53 -43 c0 -23 -4 -30 -20 -30 -21 0 -31 25 -21 51 11 28 41 12 41
-21z"/>
<path d="M9429 8826 c-17 -36 -4 -74 27 -82 51 -13 85 54 46 89 -27 25 -60 21
-73 -7z m59 -34 c3 -26 0 -32 -16 -32 -23 0 -34 30 -20 54 14 25 33 14 36 -22z"/>
<path d="M9666 8828 c-3 -13 -6 -44 -6 -70 0 -36 4 -48 15 -48 8 0 15 6 15 13
1 6 2 38 3 70 2 58 -15 80 -27 35z"/>
<path d="M9730 8795 c0 -41 3 -56 13 -52 7 2 12 22 12 52 0 30 -5 50 -12 53
-10 3 -13 -12 -13 -53z"/>
<path d="M9790 8795 l0 -55 58 1 c91 2 92 3 92 62 0 57 -16 55 -22 -3 -2 -24
-9 -36 -20 -38 -15 -3 -18 4 -18 37 0 22 -4 43 -10 46 -6 4 -10 -7 -10 -27 0
-42 -13 -63 -34 -55 -11 4 -16 19 -16 47 0 22 -4 40 -10 40 -5 0 -10 -25 -10
-55z"/>
<path d="M9980 8795 c0 -30 5 -55 10 -55 6 0 10 25 10 55 0 30 -4 55 -10 55
-5 0 -10 -25 -10 -55z"/>
<path d="M10030 8841 c0 -5 11 -23 25 -39 30 -36 31 -42 5 -42 -11 0 -20 -4
-20 -10 0 -5 16 -10 35 -10 40 0 43 11 15 47 -11 14 -20 30 -20 34 0 5 9 9 20
9 11 0 20 5 20 10 0 6 -18 10 -40 10 -22 0 -40 -4 -40 -9z"/>
<path d="M10150 8831 c-14 -26 -13 -64 2 -79 19 -19 56 -14 68 8 14 26 5 40
-25 40 -13 0 -26 4 -30 9 -7 12 31 25 45 16 5 -3 10 1 10 9 0 24 -57 21 -70
-3z m50 -65 c-6 -8 -18 -12 -26 -9 -23 9 -16 23 12 23 22 0 24 -2 14 -14z"/>
<path d="M10426 8835 c-3 -9 -6 -32 -6 -51 0 -28 4 -35 25 -40 45 -11 56 1 53
53 -3 46 -5 48 -34 51 -22 2 -33 -2 -38 -13z m48 -11 c21 -8 21 -50 0 -58 -32
-12 -57 27 -32 52 14 14 12 14 32 6z"/>
<path d="M10541 8831 c-14 -25 -14 -91 -1 -91 6 0 10 15 10 33 0 41 12 59 33
51 12 -4 17 -18 17 -48 1 -33 3 -38 11 -23 6 9 9 34 7 55 -3 34 -6 37 -35 40
-23 2 -34 -2 -42 -17z"/>
<path d="M10656 8839 c-4 -9 -6 -34 -4 -55 3 -36 6 -39 36 -42 18 -2 32 1 32
7 0 6 -9 11 -20 11 -19 0 -25 11 -33 70 -3 20 -5 22 -11 9z"/>
<path d="M10808 8844 c-9 -9 -10 -90 -2 -121 4 -15 14 -23 28 -23 20 1 20 2 4
14 -23 17 -23 26 -1 26 16 0 16 1 0 13 -9 7 -17 30 -19 55 -2 24 -6 40 -10 36z"/>
<path d="M10883 8795 c0 -33 2 -45 4 -27 2 18 2 45 0 60 -2 15 -4 0 -4 -33z"/>
<path d="M10937 8839 c-5 -9 -7 -34 -5 -55 3 -34 6 -39 31 -42 16 -2 35 2 43
9 16 13 20 99 4 99 -5 0 -10 -15 -10 -32 0 -74 -46 -79 -52 -6 -3 30 -6 38
-11 27z"/>
<path d="M11057 8843 c-17 -17 -5 -45 23 -56 36 -14 39 -27 5 -27 -14 0 -25
-5 -25 -11 0 -6 14 -9 33 -7 31 3 32 4 35 56 l3 52 -34 0 c-18 0 -37 -3 -40
-7z m52 -22 c9 -6 10 -10 2 -16 -16 -9 -44 2 -36 15 8 12 16 12 34 1z"/>
<path d="M11170 8795 l0 -55 33 0 c44 0 57 15 57 68 0 58 -24 52 -28 -7 -3
-33 -7 -42 -20 -39 -12 2 -18 15 -20 46 -5 61 -22 51 -22 -13z"/>
<path d="M11294 8826 c-3 -13 -4 -37 -2 -52 2 -24 8 -30 32 -32 16 -2 33 1 39
7 8 8 4 11 -15 11 -14 0 -31 7 -39 16 -19 23 1 50 35 46 20 -2 24 1 20 13 -4
9 -18 15 -35 15 -22 0 -30 -6 -35 -24z"/>
<path d="M11403 8795 c0 -33 2 -45 4 -27 2 18 2 45 0 60 -2 15 -4 0 -4 -33z"/>
<path d="M11449 8834 c-11 -14 -10 -19 10 -35 13 -11 29 -19 37 -19 8 0 14 -4
14 -10 0 -5 -11 -10 -25 -10 -14 0 -25 -5 -25 -11 0 -6 14 -9 33 -7 31 3 32 4
35 56 l3 52 -34 0 c-20 0 -40 -7 -48 -16z m59 -22 c3 -9 -2 -13 -14 -10 -9 1
-19 9 -22 16 -3 9 2 13 14 10 9 -1 19 -9 22 -16z"/>
<path d="M11577 8843 c-4 -3 -6 -38 -5 -77 l2 -71 3 63 c2 34 8 62 13 62 6 0
10 7 10 15 0 16 -12 20 -23 8z"/>
<path d="M6623 8783 c9 -2 25 -2 35 0 9 3 1 5 -18 5 -19 0 -27 -2 -17 -5z"/>
<path d="M4010 8710 c0 -5 5 -10 11 -10 5 0 7 5 4 10 -3 6 -8 10 -11 10 -2 0
-4 -4 -4 -10z"/>
<path d="M8605 8710 c-3 -5 -1 -10 4 -10 6 0 11 5 11 10 0 6 -2 10 -4 10 -3 0
-8 -4 -11 -10z"/>
<path d="M9980 8710 c0 -5 5 -10 11 -10 5 0 7 5 4 10 -3 6 -8 10 -11 10 -2 0
-4 -4 -4 -10z"/>
<path d="M5898 8703 c7 -3 16 -2 19 1 4 3 -2 6 -13 5 -11 0 -14 -3 -6 -6z"/>
<path d="M9738 8703 c7 -3 16 -2 19 1 4 3 -2 6 -13 5 -11 0 -14 -3 -6 -6z"/>
<path d="M6120 8526 c0 -8 7 -16 15 -19 12 -5 12 -11 1 -39 -22 -54 -28 -78
-19 -78 5 0 16 16 23 35 l14 36 14 -36 c15 -38 37 -49 27 -12 -24 81 -75 158
-75 113z"/>
<path d="M5050 8490 c0 -19 3 -21 12 -12 9 9 9 15 0 24 -9 9 -12 7 -12 -12z"/>
<path d="M2994 8463 c-4 -21 -10 -42 -14 -48 -12 -16 -16 -60 -5 -63 6 -2 15
18 21 45 9 42 12 46 21 28 6 -11 14 -35 18 -52 8 -40 23 -43 31 -5 3 15 10 38
16 52 11 24 12 23 23 -24 12 -57 39 -79 29 -24 -4 18 -11 41 -15 50 -5 9 -9
25 -9 35 0 10 -5 25 -10 33 -13 20 -26 1 -34 -51 -8 -50 -22 -50 -31 0 -4 22
-13 45 -20 51 -11 9 -15 4 -21 -27z"/>
<path d="M3171 8481 c-27 -49 -3 -99 43 -87 44 11 45 56 1 56 -13 0 -26 4 -29
9 -8 12 20 22 40 14 12 -4 15 -2 12 8 -7 23 -55 23 -67 0z m49 -65 c-6 -8 -18
-12 -26 -9 -23 9 -16 23 12 23 22 0 24 -2 14 -14z"/>
<path d="M3282 8418 c2 -81 2 -81 5 -18 2 36 8 69 14 75 14 14 11 25 -6 25
-12 0 -15 -15 -13 -82z"/>
<path d="M3344 8476 c-3 -13 -4 -37 -2 -52 2 -24 8 -30 32 -32 16 -2 33 1 39
7 8 8 2 11 -20 11 -23 0 -33 6 -38 20 -9 29 12 51 41 44 19 -5 23 -3 18 10 -4
10 -18 16 -35 16 -22 0 -30 -6 -35 -24z"/>
<path d="M3450 8481 c-24 -45 -6 -91 35 -91 28 0 45 18 45 48 0 37 -18 62 -45
62 -14 0 -29 -8 -35 -19z m60 -35 c0 -27 -18 -46 -36 -39 -17 6 -18 60 -1 66
21 7 37 -4 37 -27z"/>
<path d="M3560 8445 l0 -54 68 1 c37 0 73 5 80 10 14 12 16 98 2 98 -5 0 -10
-15 -10 -32 0 -42 -13 -63 -34 -55 -11 4 -16 19 -16 47 0 22 -4 40 -10 40 -5
0 -10 -18 -10 -40 0 -28 -5 -43 -16 -47 -21 -8 -34 13 -34 55 0 17 -4 32 -10
32 -5 0 -10 -25 -10 -55z"/>
<path d="M3761 8481 c-27 -49 -3 -99 43 -87 44 11 45 56 1 56 -13 0 -26 4 -29
9 -8 12 20 22 40 14 12 -4 15 -2 12 8 -7 23 -55 23 -67 0z m49 -65 c-6 -8 -18
-12 -26 -9 -23 9 -16 23 12 23 22 0 24 -2 14 -14z"/>
<path d="M3930 8457 c0 -24 -4 -47 -9 -52 -6 -6 -5 -16 3 -27 11 -15 13 -15
24 2 7 12 8 21 2 25 -16 10 -12 57 7 77 15 17 15 18 -5 18 -19 0 -22 -6 -22
-43z"/>
<path d="M3996 8478 c-21 -30 -20 -51 4 -73 44 -40 98 13 71 71 -14 31 -54 32
-75 2z m52 -36 c3 -27 0 -32 -17 -32 -16 0 -21 6 -21 28 0 53 33 56 38 4z"/>
<path d="M4167 8482 c-22 -24 -21 -55 1 -75 35 -32 82 -10 82 38 0 49 -52 71
-83 37z m51 -40 c3 -27 0 -32 -17 -32 -16 0 -21 6 -21 28 0 53 33 56 38 4z"/>
<path d="M4287 8493 c-4 -3 -6 -29 -5 -57 1 -42 2 -45 5 -14 5 42 27 68 45 50
6 -6 14 -28 18 -49 7 -35 8 -34 9 20 l1 57 -33 0 c-19 0 -37 -3 -40 -7z"/>
<path d="M4400 8445 c0 -54 0 -55 30 -55 17 0 30 5 30 10 0 6 -9 10 -20 10
-17 0 -20 7 -20 45 0 25 -4 45 -10 45 -5 0 -10 -25 -10 -55z"/>
<path d="M4547 8493 c-15 -15 -5 -22 23 -16 19 3 30 1 30 -6 0 -6 -3 -11 -7
-11 -5 0 -19 -9 -33 -19 -20 -16 -22 -21 -11 -35 15 -18 56 -21 66 -5 4 6 -3
9 -21 7 -15 -2 -29 3 -31 10 -3 7 3 12 14 12 11 0 27 6 37 13 15 11 17 17 7
35 -11 21 -59 31 -74 15z"/>
<path d="M4660 8457 c0 -24 -4 -47 -9 -52 -6 -6 -5 -16 3 -27 11 -15 13 -15
24 2 7 12 8 21 2 25 -16 10 -12 57 7 77 15 17 15 18 -5 18 -19 0 -22 -6 -22
-43z"/>
<path d="M4729 8473 c-13 -36 2 -77 30 -81 30 -5 51 15 51 48 0 46 -10 60 -41
60 -23 0 -32 -6 -40 -27z m61 -14 c14 -24 -2 -49 -31 -49 -14 0 -19 7 -19 29
0 26 9 38 32 40 4 1 12 -8 18 -20z"/>
<path d="M4840 8445 l0 -55 35 0 c19 0 35 5 35 10 0 6 -9 10 -19 10 -21 0 -31
19 -31 61 0 16 -4 29 -10 29 -5 0 -10 -25 -10 -55z"/>
<path d="M4941 8481 c-27 -49 -3 -99 43 -87 44 11 45 56 1 56 -13 0 -26 4 -29
9 -8 12 20 22 40 14 12 -4 15 -2 12 8 -7 23 -55 23 -67 0z m49 -65 c-6 -8 -18
-12 -26 -9 -23 9 -16 23 12 23 22 0 24 -2 14 -14z"/>
<path d="M5162 8488 c-6 -6 -12 -29 -12 -50 0 -32 4 -39 25 -44 36 -9 55 2 55
30 0 19 -6 25 -25 28 -33 4 -32 24 1 21 16 -1 24 3 21 10 -5 17 -50 20 -65 5z
m58 -67 c0 -12 -21 -19 -37 -13 -22 8 -14 22 12 22 14 0 25 -4 25 -9z"/>
<path d="M5260 8493 c0 -3 8 -15 17 -25 16 -18 16 -21 1 -49 -14 -23 -14 -29
-3 -29 7 0 15 6 18 13 3 9 9 9 26 -1 24 -14 26 -10 10 19 -8 16 -7 26 6 46 19
28 10 47 -9 20 -16 -21 -32 -22 -40 -2 -5 15 -26 21 -26 8z"/>
<path d="M5382 8484 c-17 -19 -11 -74 9 -87 10 -6 27 -7 45 -1 l29 8 -32 4
c-34 3 -47 23 -37 54 5 16 11 18 37 12 28 -6 30 -5 18 10 -17 20 -52 20 -69 0z"/>
<path d="M5497 8493 c-4 -3 -6 -40 -5 -82 l2 -76 3 65 c2 36 8 69 14 75 5 5 9
13 9 17 0 10 -14 11 -23 1z"/>
<path d="M5552 8480 c-6 -11 -12 -36 -12 -56 0 -49 23 -40 30 12 7 56 34 53
38 -3 5 -62 22 -53 22 12 l0 55 -33 0 c-21 0 -36 -7 -45 -20z"/>
<path d="M5670 8484 c0 -11 6 -14 20 -9 35 11 44 -7 11 -23 -44 -21 -40 -56 7
-60 18 -2 32 1 32 7 0 6 -10 10 -21 8 -31 -3 -35 19 -4 27 52 13 39 66 -16 66
-20 0 -29 -5 -29 -16z"/>
<path d="M5783 8445 c0 -33 2 -45 4 -27 2 18 2 45 0 60 -2 15 -4 0 -4 -33z"/>
<path d="M5853 8483 c-3 -10 -12 -33 -20 -52 -7 -19 -11 -36 -9 -39 9 -8 26
10 26 28 0 32 27 32 34 -1 3 -16 10 -29 16 -29 13 0 13 37 1 45 -5 3 -12 19
-16 35 -7 33 -22 39 -32 13z"/>
<path d="M5941 8472 c-15 -37 0 -82 28 -82 35 0 51 12 51 36 0 20 -5 24 -31
24 -20 0 -29 4 -26 13 2 7 16 11 32 9 19 -2 26 1 23 10 -3 7 -18 14 -35 16
-25 3 -32 -2 -42 -26z m59 -56 c-6 -8 -18 -12 -26 -9 -23 9 -16 23 12 23 22 0
24 -2 14 -14z"/>
<path d="M6060 8420 c0 -47 4 -80 10 -80 6 0 10 28 10 64 0 35 3 71 6 80 4 11
1 16 -10 16 -13 0 -16 -13 -16 -80z"/>
<path d="M6274 8486 c-3 -8 -4 -31 -2 -52 3 -36 6 -39 36 -42 18 -2 32 1 32 7
0 6 -9 11 -20 11 -17 0 -20 7 -20 45 0 43 -15 61 -26 31z"/>
<path d="M6383 8494 c-8 -3 -13 -24 -13 -50 0 -38 3 -44 25 -50 29 -7 55 10
55 37 0 15 -7 19 -31 19 -20 0 -29 4 -26 13 2 6 16 11 31 10 17 -1 26 2 23 10
-4 13 -44 19 -64 11z m47 -73 c0 -11 -26 -22 -34 -14 -12 12 -5 23 14 23 11 0
20 -4 20 -9z"/>
<path d="M6493 8493 c-26 -10 -12 -24 17 -18 19 4 30 3 30 -4 0 -6 -3 -11 -7
-11 -5 0 -19 -9 -33 -19 -20 -16 -22 -21 -11 -35 15 -18 56 -21 66 -6 4 7 -2
9 -19 4 -20 -5 -26 -2 -26 9 0 9 13 18 30 22 32 7 40 31 18 53 -12 12 -43 15
-65 5z"/>
<path d="M6599 8473 c-7 -17 -7 -38 -2 -53 15 -44 83 -35 83 11 0 15 -7 19
-36 19 -24 0 -34 4 -31 13 2 7 17 11 35 10 24 -2 30 0 26 12 -4 9 -19 15 -35
15 -23 0 -32 -6 -40 -27z m51 -51 c0 -14 -11 -21 -26 -15 -21 8 -17 23 6 23
11 0 20 -4 20 -8z"/>
<path d="M6710 8446 l0 -56 35 0 c19 0 35 5 35 10 0 6 -9 10 -19 10 -16 0 -20
8 -23 42 -5 66 -28 61 -28 -6z"/>
<path d="M6823 8483 c-3 -10 -12 -33 -20 -52 -7 -19 -11 -36 -9 -39 9 -8 26
10 26 28 0 32 27 32 34 -1 3 -16 10 -29 16 -29 13 0 13 37 1 45 -5 3 -12 19
-16 35 -7 33 -22 39 -32 13z"/>
<path d="M6911 8472 c-15 -37 0 -82 28 -82 35 0 51 12 51 36 0 20 -5 24 -31
24 -20 0 -29 4 -26 13 2 7 16 11 32 9 19 -2 26 1 23 10 -3 7 -18 14 -35 16
-25 3 -32 -2 -42 -26z m59 -50 c0 -14 -11 -21 -26 -15 -21 8 -17 23 6 23 11 0
20 -4 20 -8z"/>
<path d="M7030 8481 c-24 -46 -6 -91 37 -91 18 0 23 -6 23 -25 0 -14 5 -25 10
-25 6 0 10 33 10 80 l0 80 -35 0 c-24 0 -37 -6 -45 -19z m60 -43 c0 -25 -4
-29 -22 -26 -26 3 -38 46 -17 58 21 14 39 -1 39 -32z"/>
<path d="M7198 8443 c-3 -57 7 -93 28 -100 11 -4 10 112 -1 145 -10 30 -23 7
-27 -45z"/>
<path d="M7282 8491 c-19 -12 -20 -80 -2 -92 26 -15 49 -10 66 16 32 49 -16
107 -64 76z m48 -26 c16 -19 3 -55 -20 -55 -23 0 -36 36 -20 55 7 8 16 15 20
15 4 0 13 -7 20 -15z"/>
<path d="M7384 8486 c-3 -8 -4 -31 -2 -52 3 -36 6 -39 36 -42 18 -2 32 1 32 7
0 6 -9 11 -20 11 -17 0 -20 7 -20 45 0 43 -15 61 -26 31z"/>
<path d="M7536 8478 c-21 -30 -20 -51 4 -73 44 -40 98 13 71 71 -14 31 -54 32
-75 2z m52 -36 c3 -27 0 -32 -17 -32 -16 0 -21 6 -21 28 0 53 33 56 38 4z"/>
<path d="M7654 8476 c-3 -13 -4 -38 -1 -57 l4 -34 1 36 c4 74 57 74 65 1 3
-27 4 -21 5 21 l2 57 -35 0 c-28 0 -36 -4 -41 -24z"/>
<path d="M7777 8489 c-5 -9 -7 -34 -5 -55 3 -34 6 -39 31 -42 15 -2 27 1 27 7
0 6 -9 11 -19 11 -17 0 -20 8 -23 48 -2 32 -6 42 -11 31z"/>
<path d="M7919 8473 c-7 -17 -7 -38 -2 -53 15 -44 83 -35 83 11 0 15 -7 19
-35 19 -19 0 -35 4 -35 9 0 13 25 20 49 14 17 -4 20 -2 15 11 -4 10 -18 16
-35 16 -23 0 -32 -6 -40 -27z m51 -57 c-6 -8 -18 -12 -26 -9 -23 9 -16 23 12
23 22 0 24 -2 14 -14z"/>
<path d="M8037 8494 c-15 -15 -6 -24 17 -18 36 9 41 -12 6 -28 -48 -21 -35
-58 20 -58 10 0 22 5 26 11 5 9 -1 10 -20 5 -19 -5 -26 -3 -26 8 0 7 12 17 26
20 20 5 25 12 22 34 -2 22 -9 28 -33 30 -17 2 -34 0 -38 -4z"/>
<path d="M8146 8483 c-9 -27 -10 -112 -3 -120 4 -4 13 2 21 12 10 14 11 25 2
47 -8 21 -7 33 2 48 15 25 15 30 -2 30 -8 0 -17 -8 -20 -17z"/>
<path d="M8223 8494 c-8 -3 -13 -24 -13 -50 0 -38 3 -44 25 -50 29 -7 55 10
55 37 0 15 -7 19 -31 19 -20 0 -29 4 -26 13 2 6 16 11 31 10 17 -1 26 2 23 10
-4 13 -44 19 -64 11z m47 -73 c0 -11 -26 -22 -34 -14 -12 12 -5 23 14 23 11 0
20 -4 20 -9z"/>
<path d="M8332 8484 c-17 -19 -11 -74 9 -87 9 -5 28 -7 42 -3 20 5 27 13 27
31 0 21 -5 25 -31 25 -20 0 -29 4 -26 13 2 6 16 11 31 9 28 -3 36 12 10 22
-25 10 -48 6 -62 -10z m58 -64 c0 -5 -9 -10 -20 -10 -11 0 -20 5 -20 10 0 6 9
10 20 10 11 0 20 -4 20 -10z"/>
<path d="M8451 8448 l-1 -58 63 2 c34 0 68 5 75 11 14 11 17 97 2 97 -5 0 -10
-20 -10 -45 0 -37 -3 -45 -19 -45 -21 0 -31 19 -31 61 0 16 -4 29 -10 29 -5 0
-10 -20 -10 -45 0 -38 -3 -45 -20 -45 -14 0 -21 9 -25 38 -11 60 -13 60 -14 0z"/>
<path d="M8642 8488 c-7 -7 -12 -29 -12 -50 0 -32 4 -39 27 -44 32 -8 58 6 58
32 0 14 -8 20 -33 22 -20 2 -32 8 -29 15 2 7 18 11 37 9 28 -2 31 0 20 13 -15
18 -51 20 -68 3z m48 -68 c0 -5 -9 -10 -20 -10 -11 0 -20 5 -20 10 0 6 9 10
20 10 11 0 20 -4 20 -10z"/>
<path d="M8749 8473 c-15 -39 1 -77 34 -81 19 -2 27 -9 27 -22 0 -10 5 -22 10
-25 6 -4 10 23 10 74 l0 81 -35 0 c-29 0 -37 -5 -46 -27z m59 -31 c3 -26 0
-32 -17 -32 -24 0 -37 35 -20 56 18 22 34 12 37 -24z"/>
<path d="M8930 8420 l0 -80 33 0 c55 1 84 38 55 69 -10 11 -10 14 0 18 16 6
15 33 -2 56 -8 11 -27 17 -50 17 l-36 0 0 -80z m54 54 c9 -3 16 -15 16 -25 0
-14 -7 -19 -30 -19 -22 0 -30 5 -30 18 0 30 13 38 44 26z m13 -80 c7 -18 -14
-35 -37 -31 -8 1 -16 12 -18 25 -3 18 1 22 23 22 14 0 28 -7 32 -16z"/>
<path d="M9060 8488 c0 -7 11 -26 25 -42 30 -35 40 -65 26 -79 -7 -7 -15 -6
-26 3 -8 7 -18 10 -22 7 -11 -11 19 -37 43 -37 36 0 43 44 16 91 -27 46 -27
49 -2 49 11 0 20 5 20 10 0 6 -18 10 -40 10 -25 0 -40 -5 -40 -12z"/>
<path d="M9180 8420 l0 -80 33 0 c46 1 71 22 64 57 -3 15 -1 35 3 44 16 29
-16 59 -61 59 l-39 0 0 -80z m69 51 c21 -13 5 -41 -24 -41 -18 0 -25 5 -25 18
0 31 21 41 49 23z m9 -83 c4 -19 -35 -35 -50 -20 -6 6 -8 18 -4 27 8 21 50 16
54 -7z"/>
<path d="M9377 8482 c-38 -42 -2 -102 50 -86 l28 8 -33 4 c-31 3 -33 6 -30 35
3 29 6 32 32 29 26 -3 28 -1 17 12 -18 21 -44 20 -64 -2z"/>
<path d="M9480 8481 c-13 -25 -13 -78 0 -86 6 -4 10 8 10 28 0 40 26 70 41 46
5 -8 9 -29 9 -46 0 -18 5 -33 10 -33 6 0 10 25 10 55 l0 55 -35 0 c-24 0 -37
-6 -45 -19z"/>
<path d="M9597 8494 c-15 -15 -6 -26 16 -21 37 10 50 -7 16 -22 -22 -10 -29
-19 -27 -35 3 -24 44 -35 62 -16 8 9 5 11 -13 8 -13 -1 -26 2 -28 9 -2 6 6 13
19 15 18 2 23 9 23 33 0 26 -4 30 -30 33 -17 2 -34 0 -38 -4z"/>
<path d="M9716 8478 c-13 -63 -15 -94 -6 -108 8 -13 11 -12 24 5 9 12 11 24 5
30 -12 12 -12 62 1 70 15 9 12 25 -5 25 -8 0 -17 -10 -19 -22z"/>
<path d="M9782 8480 c-27 -44 -6 -90 42 -90 22 0 46 28 46 54 0 48 -64 74 -88
36z m56 -38 c3 -27 0 -32 -17 -32 -16 0 -21 6 -21 28 0 53 33 56 38 4z"/>
<path d="M9901 8447 l-1 -57 58 1 c91 2 92 3 92 62 0 57 -16 55 -22 -3 -2 -27
-7 -35 -23 -35 -16 0 -21 9 -26 45 -5 36 -6 38 -7 13 -3 -46 -12 -63 -33 -63
-18 0 -23 11 -32 70 -3 14 -5 -1 -6 -33z"/>
<path d="M10092 8488 c-6 -6 -12 -29 -12 -50 0 -32 4 -39 25 -44 36 -9 55 2
55 30 0 19 -6 25 -25 28 -33 4 -32 24 1 21 16 -1 24 3 21 10 -5 17 -50 20 -65
5z m58 -67 c0 -16 -28 -20 -40 -5 -10 12 -8 14 14 14 14 0 26 -4 26 -9z"/>
<path d="M10207 8489 c-5 -9 -7 -34 -5 -55 3 -34 6 -39 31 -42 15 -2 27 1 27
7 0 6 -9 11 -19 11 -17 0 -20 8 -23 48 -2 32 -6 42 -11 31z"/>
<path d="M10290 8485 c0 -11 7 -14 24 -9 36 9 40 -12 6 -26 -32 -13 -40 -44
-14 -54 24 -9 54 -7 54 4 0 5 -10 9 -21 7 -29 -3 -36 21 -8 25 31 4 47 32 30
52 -18 21 -71 21 -71 1z"/>
<path d="M10461 8456 c-14 -55 -14 -69 -1 -61 6 3 10 15 10 26 0 26 28 24 32
-3 5 -34 27 -34 34 1 8 39 23 40 31 1 3 -16 11 -30 19 -30 9 0 8 12 -6 52 -22
64 -37 71 -46 22 -6 -34 -8 -36 -20 -19 -8 10 -14 27 -14 37 0 36 -28 17 -39
-26z"/>
<path d="M10627 8493 c-11 -10 -8 -91 3 -98 6 -4 10 15 10 49 0 57 -1 61 -13
49z"/>
<path d="M10686 8488 c-11 -34 -14 -105 -6 -118 8 -13 11 -12 24 5 9 12 11 24
5 30 -12 12 -12 52 1 76 9 15 7 19 -5 19 -9 0 -17 -6 -19 -12z"/>
<path d="M10750 8420 c0 -47 4 -80 10 -80 6 0 10 11 10 25 0 19 5 25 23 25 34
0 47 19 47 68 0 57 -24 52 -28 -6 -3 -34 -7 -42 -23 -42 -16 0 -19 7 -19 45 0
25 -4 45 -10 45 -6 0 -10 -33 -10 -80z"/>
<path d="M10870 8445 c0 -30 5 -55 10 -55 6 0 10 25 10 55 0 30 -4 55 -10 55
-5 0 -10 -25 -10 -55z"/>
<path d="M10920 8445 c0 -54 0 -55 29 -55 53 0 61 8 61 61 0 27 -4 49 -10 49
-5 0 -10 -20 -10 -45 0 -38 -3 -45 -20 -45 -17 0 -20 7 -20 45 0 33 -4 45 -15
45 -12 0 -15 -13 -15 -55z"/>
<path d="M11117 8493 c-4 -3 -7 -23 -7 -44 0 -21 -4 -41 -10 -44 -6 -4 -5 -13
3 -25 14 -23 27 -26 27 -6 0 8 6 17 13 19 10 4 10 6 0 6 -17 1 -17 73 -1 89 9
9 9 12 -3 12 -9 0 -19 -3 -22 -7z"/>
<path d="M11178 8494 c-11 -11 -10 -142 1 -149 5 -3 11 5 13 17 2 15 13 24 36
30 31 8 32 11 32 58 0 28 -4 50 -10 50 -5 0 -10 -18 -10 -40 0 -27 -5 -43 -15
-47 -22 -8 -28 1 -34 48 -3 22 -9 37 -13 33z"/>
<path d="M11300 8481 c-14 -26 -13 -64 2 -79 19 -19 56 -14 68 8 14 26 5 40
-25 40 -13 0 -26 4 -30 9 -7 12 31 25 45 16 5 -3 10 1 10 9 0 24 -57 21 -70
-3z m60 -60 c0 -12 -21 -19 -37 -13 -22 8 -14 22 12 22 14 0 25 -4 25 -9z"/>
<path d="M5781 8354 c0 -11 3 -14 6 -6 3 7 2 16 -1 19 -3 4 -6 -2 -5 -13z"/>
<path d="M10625 8361 c-3 -5 -1 -12 5 -16 5 -3 10 1 10 9 0 18 -6 21 -15 7z"/>
<path d="M10870 8350 c0 -5 5 -10 10 -10 6 0 10 5 10 10 0 6 -4 10 -10 10 -5
0 -10 -4 -10 -10z"/>
<path d="M4840 7661 l0 -231 43 0 c24 0 48 5 55 12 9 9 15 9 24 0 18 -18 100
-15 127 4 32 23 61 90 61 145 0 63 -28 147 -51 154 -11 4 -19 11 -19 16 0 12
-107 12 -115 -1 -15 -24 -24 -5 -27 58 l-3 67 -47 3 -48 3 0 -230z m188 7 c16
-16 16 -120 0 -136 -17 -17 -54 -15 -72 4 -18 18 -22 95 -6 125 12 22 59 26
78 7z"/>
<path d="M10570 7661 l0 -231 49 0 c30 0 51 5 54 13 4 10 7 10 18 0 7 -7 35
-13 62 -13 44 0 54 4 83 35 23 25 35 49 40 81 8 54 -2 158 -16 162 -6 2 -10
10 -10 17 0 8 -9 17 -20 20 -11 3 -20 11 -20 16 0 12 -107 12 -115 -1 -15 -24
-24 -5 -27 58 l-3 67 -47 3 -48 3 0 -230z m184 13 c20 -8 23 -123 4 -142 -17
-17 -54 -15 -72 4 -18 18 -22 95 -6 125 11 19 43 25 74 13z"/>
<path d="M3492 7538 l3 -233 153 -3 152 -3 0 46 0 45 -100 0 c-97 0 -100 1
-106 24 -3 13 -4 35 -2 47 3 23 7 24 91 27 l88 3 -3 42 -3 42 -85 5 -85 5 -3
42 -3 42 103 3 103 3 3 48 3 47 -156 0 -155 0 2 -232z"/>
<path d="M3893 7751 c-12 -10 -27 -38 -32 -62 -13 -53 -14 -229 -2 -247 5 -8
23 -12 47 -10 l39 3 5 112 c3 63 10 117 16 123 6 7 24 10 40 8 l29 -3 2 -100
c4 -144 5 -145 57 -145 31 0 46 5 50 16 8 20 8 288 0 308 -8 20 -84 22 -103 4
-11 -10 -14 -10 -18 0 -8 20 -104 15 -130 -7z"/>
<path d="M4220 7600 l0 -170 50 0 c40 0 50 3 50 17 0 15 1 15 18 0 12 -11 36
-17 66 -17 57 0 67 17 41 67 -17 32 -22 34 -53 28 -25 -5 -39 -2 -53 11 -16
15 -19 32 -19 126 l0 108 -50 0 -50 0 0 -170z"/>
<path d="M4536 7750 c-17 -11 -37 -32 -45 -47 -19 -35 -21 -157 -3 -198 20
-47 71 -75 140 -75 91 0 137 40 147 128 10 96 -21 192 -62 192 -7 0 -13 5 -13
10 0 19 -132 10 -164 -10z m136 -113 c10 -49 -2 -96 -28 -114 -18 -12 -24 -11
-47 8 -22 17 -27 29 -27 66 0 58 22 85 64 81 26 -3 31 -8 38 -41z"/>
<path d="M5224 7736 l-39 -34 0 -102 0 -102 39 -34 c35 -30 46 -34 98 -34 44
0 67 6 93 23 41 27 53 50 61 122 l7 55 -102 0 c-92 0 -102 2 -99 17 2 10 16
24 31 31 24 11 35 11 72 -1 40 -14 45 -14 64 4 31 29 26 46 -19 69 -27 14 -59
20 -103 20 -58 0 -67 -3 -103 -34z m149 -182 c12 -13 -19 -44 -44 -44 -27 0
-64 31 -52 43 8 9 87 9 96 1z"/>
<path d="M5557 7745 c-22 -21 -27 -34 -27 -75 0 -72 27 -94 128 -106 63 -7 77
-19 47 -44 -14 -12 -67 -10 -110 4 -15 5 -24 -1 -38 -25 -10 -17 -16 -33 -15
-34 26 -22 78 -35 137 -35 64 0 74 3 103 29 l33 29 0 139 0 138 -38 3 c-22 2
-45 -3 -54 -10 -13 -10 -17 -10 -20 0 -3 8 -25 12 -61 12 -47 0 -62 -4 -85
-25z m145 -62 c10 -9 18 -25 18 -36 0 -17 -5 -19 -41 -14 -50 7 -53 10 -45 42
8 30 40 34 68 8z"/>
<path d="M5880 7600 l0 -170 45 0 c31 0 47 5 51 15 5 13 8 13 21 0 24 -25 103
-19 138 10 l30 25 3 145 3 145 -45 0 -46 0 0 -104 c0 -97 -2 -105 -25 -130
-24 -26 -28 -27 -48 -13 -20 13 -22 23 -25 131 l-3 116 -49 0 -50 0 0 -170z"/>
<path d="M6472 7757 c-90 -82 -94 -95 -90 -297 l3 -155 48 -3 47 -3 0 143 c0
201 23 253 103 232 45 -11 57 -59 57 -225 l0 -150 48 3 47 3 3 168 c2 139 0
173 -14 200 -21 41 -54 77 -71 77 -7 0 -13 5 -13 10 0 14 -152 12 -168 -3z"/>
<path d="M6810 7600 l0 -170 44 0 c24 0 46 5 48 11 3 9 9 9 25 0 12 -6 41 -11
65 -11 36 0 50 6 74 31 29 30 29 31 32 170 l4 139 -51 0 -51 0 0 -110 c0 -97
-2 -112 -20 -130 -17 -17 -24 -18 -41 -10 -30 17 -39 52 -39 156 l0 94 -45 0
-45 0 0 -170z"/>
<path d="M7170 7600 l0 -170 50 0 50 0 0 170 0 170 -50 0 -50 0 0 -170z"/>
<path d="M7376 7750 c-45 -29 -65 -75 -66 -148 0 -113 50 -172 149 -172 111 0
156 53 155 181 0 58 -5 81 -17 94 -9 9 -17 19 -17 23 0 4 -14 15 -31 25 -43
24 -135 23 -173 -3z m124 -85 c7 -8 12 -37 12 -65 0 -28 -5 -57 -12 -65 -16
-20 -54 -19 -74 1 -18 18 -22 95 -6 125 13 23 62 26 80 4z"/>
<path d="M7680 7600 l0 -170 44 0 c25 0 48 5 51 10 4 7 12 7 25 0 31 -17 103
-11 127 9 36 30 43 64 43 197 l0 125 -47 -3 -48 -3 -5 -113 c-4 -97 -8 -116
-24 -128 -17 -12 -23 -12 -40 0 -19 12 -21 25 -24 130 l-3 116 -49 0 -50 0 0
-170z"/>
<path d="M8182 7538 l3 -233 115 0 c119 1 190 15 190 40 0 7 5 15 11 17 6 2
13 25 16 52 5 38 2 53 -16 76 -25 35 -26 39 -5 54 19 14 34 78 27 120 -12 76
-79 106 -236 106 l-107 0 2 -232z m229 121 c14 -22 11 -51 -8 -71 -21 -24
-108 -26 -117 -2 -8 22 -8 79 2 88 12 13 113 0 123 -15z m-18 -183 c24 -18 22
-63 -3 -76 -12 -6 -40 -10 -63 -8 -40 3 -42 5 -45 36 -2 19 -1 40 2 48 7 18
85 18 109 0z"/>
<path d="M8580 7724 c0 -39 6 -53 43 -97 23 -29 47 -56 53 -62 6 -5 27 -31 48
-57 29 -37 37 -54 34 -80 -3 -28 -7 -33 -32 -36 -21 -3 -34 3 -50 22 -18 22
-26 25 -58 20 -45 -8 -49 -28 -18 -79 27 -43 107 -70 163 -54 52 14 95 59 103
107 8 52 -14 98 -88 185 -32 38 -58 72 -58 78 0 5 34 9 75 9 l75 0 0 45 0 45
-145 0 -145 0 0 -46z"/>
<path d="M8942 7538 l3 -233 115 0 c75 0 126 5 147 14 66 27 94 121 53 174
-11 14 -20 28 -20 31 0 4 9 16 20 28 21 22 25 47 21 108 -6 77 -75 110 -232
110 l-109 0 2 -232z m229 121 c30 -48 -12 -92 -83 -87 -42 3 -43 4 -46 42 -5
63 1 69 64 64 33 -3 60 -11 65 -19z m-18 -183 c24 -18 22 -63 -3 -76 -12 -6
-40 -10 -63 -8 -40 3 -42 5 -45 36 -2 19 -1 40 2 48 7 18 85 18 109 0z"/>
<path d="M9556 7761 c-3 -5 -17 -12 -32 -15 -14 -4 -35 -16 -47 -26 l-21 -20
25 -27 c37 -42 41 -43 74 -23 47 29 109 36 140 16 56 -37 19 -74 -96 -96 -36
-7 -64 -19 -78 -34 -46 -49 -49 -142 -5 -189 21 -23 105 -57 140 -57 29 0 142
41 147 54 6 16 -33 76 -49 76 -7 0 -25 -7 -40 -15 -38 -20 -89 -19 -109 1 -35
36 5 70 97 85 140 22 175 180 57 254 -33 21 -51 25 -118 25 -44 0 -82 -4 -85
-9z"/>
<path d="M9870 7534 l0 -235 48 3 47 3 3 78 c3 70 4 76 18 62 25 -25 103 -19
139 10 l30 25 3 145 3 146 -48 -3 -48 -3 -5 -113 c-4 -97 -8 -116 -24 -128
-17 -12 -23 -12 -40 0 -19 12 -21 25 -24 130 l-3 116 -49 0 -50 0 0 -236z"/>
<path d="M10265 7734 l-40 -35 0 -98 c0 -82 3 -100 19 -117 40 -41 71 -54 125
-54 101 0 154 56 155 165 2 121 -47 175 -157 175 -57 0 -65 -3 -102 -36z m143
-66 c16 -16 16 -123 0 -135 -47 -36 -88 -6 -88 63 0 25 5 54 10 65 12 22 59
26 78 7z"/>
<path d="M7172 7348 l3 -43 45 0 45 0 3 43 3 42 -51 0 -51 0 3 -42z"/>
<path d="M0 3085 l0 -3085 7200 0 7200 0 0 3083 0 3082 -7200 2 -7200 3 0
-3085z m1691 2020 c2 -247 -8 -465 -23 -504 -8 -23 -34 -221 -45 -348 -4 -40
-9 -53 -21 -54 -33 -3 -207 3 -212 8 -2 2 -3 34 -2 71 1 46 -6 96 -23 157 -13
50 -25 86 -25 80 -1 -5 -5 -1 -9 10 -14 35 -6 187 12 225 32 68 54 148 45 164
-7 12 -5 16 4 14 7 -2 14 8 16 22 2 14 8 29 13 34 5 6 9 16 9 24 0 8 7 30 16
50 9 21 25 57 36 82 46 106 93 178 115 179 13 1 53 75 53 97 0 7 6 14 13 17
19 6 26 -75 28 -328z m1264 -207 c4 -51 2 -235 -4 -408 -6 -173 -11 -344 -11
-378 l0 -64 -89 4 c-49 1 -91 5 -94 8 -2 3 2 79 9 170 8 91 18 234 23 317 9
148 18 189 37 181 5 -1 12 17 15 42 8 58 23 103 43 132 9 12 16 33 16 45 0 14
6 23 15 23 8 0 15 5 15 10 0 6 4 10 9 10 5 0 12 -42 16 -92z m4205 -330 c11
-12 18 -29 16 -37 -19 -72 -16 -81 40 -118 13 -8 24 -22 24 -29 0 -8 4 -14 9
-14 5 0 17 -31 26 -70 l17 -70 39 0 c21 0 61 -5 89 -11 28 -6 54 -8 58 -4 4 4
9 61 12 128 l5 122 68 3 67 3 2 -83 c2 -80 3 -110 6 -171 1 -15 11 -35 22 -44
11 -10 20 -22 20 -29 0 -6 -9 -19 -20 -29 -16 -14 -20 -31 -20 -76 l0 -58 78
-3 77 -3 3 -62 3 -63 -235 0 -235 0 -6 44 c-12 79 -5 86 86 86 l79 0 0 28 c0
52 -9 56 -106 48 -49 -4 -91 -9 -93 -11 -2 -3 -6 -47 -9 -100 l-5 -95 -68 0
-69 0 0 43 c0 23 -3 66 -6 95 l-7 52 -88 0 -89 0 0 -95 0 -96 -72 3 -73 3 -5
97 c-3 53 -8 100 -13 104 -4 4 -39 16 -78 26 -82 20 -99 31 -99 63 0 33 21 45
101 59 71 12 73 13 86 50 7 21 10 42 7 47 -3 5 -41 9 -85 9 -44 0 -79 4 -79
10 0 5 -6 7 -14 4 -14 -5 -46 -88 -46 -118 0 -9 -7 -16 -16 -16 -12 0 -14 5
-9 18 5 9 13 36 19 59 7 23 15 45 19 49 17 18 2 24 -58 24 l-65 0 0 -245 0
-245 -70 0 -70 0 0 254 c0 282 4 266 -70 266 l-38 0 14 -52 c19 -72 19 -273
-1 -327 -29 -82 -84 -131 -170 -150 -49 -11 -65 -10 -120 4 -69 19 -126 59
-151 107 -23 44 -36 207 -24 300 13 105 53 175 112 193 12 4 26 12 29 18 4 5
42 10 85 11 88 1 149 -21 193 -68 21 -22 33 -26 83 -26 l58 0 0 45 0 45 166 0
166 0 41 34 c85 68 92 71 221 77 227 10 213 11 236 -13z m2150 -22 c0 -46 -15
-70 -26 -42 -3 9 -12 16 -20 16 -8 0 -14 5 -14 10 0 6 7 10 15 10 8 0 17 11
21 25 10 40 24 29 24 -19z m-3703 -96 c23 -11 55 -36 70 -57 25 -33 28 -44 28
-117 0 -65 -4 -86 -20 -107 -25 -34 -79 -64 -130 -74 -22 -4 -51 -9 -64 -11
-13 -3 -39 -11 -57 -19 -41 -17 -46 -56 -11 -86 29 -25 49 -24 132 6 l69 26
19 -23 c29 -37 46 -74 39 -84 -28 -39 -150 -78 -217 -69 -89 11 -122 24 -163
66 -34 33 -42 49 -47 93 -8 61 6 124 34 151 46 45 46 45 217 86 48 12 75 49
58 77 -32 50 -127 53 -211 6 l-51 -29 -36 40 c-20 23 -35 49 -34 60 3 23 101
75 163 86 62 12 166 1 212 -21z m2811 -2 c42 -20 102 -87 102 -113 0 -7 7 -27
16 -45 14 -27 16 -52 10 -144 -8 -138 -25 -193 -77 -245 -40 -39 -80 -54 -174
-63 l-30 -3 0 -85 0 -85 -60 0 -60 0 -3 70 c-1 42 3 80 11 95 11 22 9 27 -21
60 -65 67 -76 108 -77 265 0 128 2 144 24 190 22 45 63 95 78 95 3 0 19 6 36
14 66 30 153 28 225 -6z m-430 -290 l2 -308 -69 0 -69 0 -4 206 c-2 113 -2
252 0 310 l4 105 67 -3 66 -3 3 -307z m756 296 c3 -9 6 -78 6 -155 0 -82 4
-139 10 -139 13 0 55 47 71 79 35 67 121 210 134 221 7 6 38 10 72 8 l58 -3 5
-120 5 -119 30 -6 c17 -3 63 -4 103 -2 67 3 72 5 78 29 5 17 10 21 17 14 6 -6
34 -11 61 -11 89 0 176 -37 176 -75 0 -8 14 -22 32 -31 18 -9 39 -23 46 -31
22 -21 1 -36 -88 -63 -62 -18 -108 -23 -267 -28 l-193 -5 0 -83 0 -84 -65 0
-65 0 0 90 c0 89 0 91 -27 101 -60 23 -64 20 -128 -88 l-60 -103 -67 0 -68 0
0 184 c0 103 -5 197 -10 212 -8 19 -8 30 0 38 5 5 10 50 10 98 l0 88 59 0 c44
0 60 -4 65 -16z m-6364 -234 c0 -113 -2 -130 -16 -130 -13 0 -15 8 -10 48 3
26 9 84 12 130 4 45 8 82 10 82 2 0 4 -58 4 -130z m6940 81 c0 -10 -53 -18
-89 -13 -19 3 -21 6 -10 13 18 11 99 12 99 0z m-132 -8 c-10 -2 -26 -2 -35 0
-10 3 -2 5 17 5 19 0 27 -2 18 -5z m-1493 -43 c3 -5 1 -10 -4 -10 -6 0 -11 5
-11 10 0 6 2 10 4 10 3 0 8 -4 11 -10z m-3625 -156 c0 -111 -14 -156 -22 -71
-6 62 3 197 13 191 5 -3 9 -57 9 -120z m709 -380 c1 -66 -2 -124 -6 -128 -7
-7 -83 62 -83 76 0 5 10 13 23 19 20 9 20 9 -5 4 -38 -7 -48 17 -47 107 1 56
3 66 9 41 7 -32 31 -63 48 -63 5 0 13 17 17 38 4 20 11 43 17 50 7 8 7 16 0
25 -7 8 -7 18 -2 27 6 8 10 33 11 55 3 69 17 -125 18 -251z m-112 214 c-3 -8
-6 -5 -6 6 -1 11 2 17 5 13 3 -3 4 -12 1 -19z m-2851 -85 c47 -43 64 -79 64
-142 0 -81 -17 -78 -22 4 -4 60 -7 68 -43 106 -26 25 -46 38 -58 35 -9 -2 -15
0 -11 5 9 15 50 10 70 -8z m-93 -28 c-3 -9 -8 -14 -10 -11 -3 3 -2 9 2 15 9
16 15 13 8 -4z m8146 -157 c-9 -16 -14 -19 -17 -9 -2 7 2 17 9 22 20 13 21 11
8 -13z m-364 1 c17 -4 -73 -7 -200 -6 -138 0 -208 3 -175 7 69 9 335 8 375 -1z
m345 -65 c0 -8 -4 -14 -10 -14 -5 0 -10 9 -10 21 0 11 5 17 10 14 6 -3 10 -13
10 -21z m468 -84 l19 -55 101 -2 100 -3 17 48 c10 26 19 53 21 60 4 15 144 17
144 2 0 -6 -9 -37 -20 -69 -11 -32 -22 -77 -26 -100 -6 -38 -5 -43 17 -48 20
-6 21 -7 5 -13 -16 -5 -13 -9 15 -23 l34 -17 -57 0 c-39 0 -58 -4 -58 -12 0
-11 -56 -165 -81 -223 -5 -11 -14 -38 -21 -60 l-13 -40 -74 0 -74 0 -24 70
c-13 39 -28 79 -33 90 -30 66 -50 119 -50 131 0 23 -37 16 -58 -11 -17 -22
-20 -48 -27 -222 -7 -229 8 -564 30 -649 19 -72 20 -137 3 -132 -7 3 -16 24
-20 49 -5 24 -15 76 -23 114 -29 137 -45 292 -48 457 -1 93 -2 168 -3 168 0 0
-15 -13 -34 -30 -40 -36 -122 -55 -199 -46 -74 9 -119 39 -166 111 -18 27 -20
48 -20 205 0 173 0 175 28 221 22 37 39 52 87 73 33 15 60 32 60 39 0 9 2 9 8
1 4 -6 33 -14 64 -18 92 -12 147 -46 181 -112 19 -36 17 -38 -41 -64 -58 -26
-65 -25 -85 10 -32 54 -124 49 -154 -10 -15 -31 -18 -234 -3 -276 11 -30 58
-64 91 -64 10 0 19 5 19 10 0 6 6 10 14 10 8 0 23 14 33 30 20 34 27 36 78 14
20 -8 38 -14 40 -12 1 2 7 34 13 72 6 37 19 77 28 87 19 21 60 25 67 7 2 -7 7
-11 10 -8 8 7 -21 139 -38 177 -8 17 -15 38 -15 46 0 9 -4 19 -10 22 -5 3 -10
17 -10 31 0 23 3 24 60 24 55 0 60 2 61 23 1 25 -4 35 37 -83z m-3424 80 c33
-12 34 -40 2 -40 -19 0 -24 -6 -30 -37 -10 -62 -7 -263 4 -263 6 0 10 4 10 10
0 8 26 70 60 145 5 11 14 32 20 48 9 25 14 27 65 27 44 0 57 -4 61 -17 7 -22
39 -102 68 -165 11 -27 25 -48 29 -48 5 0 8 66 7 148 -2 81 -2 153 -1 160 1 8
20 12 61 12 41 0 60 -4 60 -12 0 -7 1 -148 2 -313 l1 -300 -65 -3 c-63 -3 -67
-2 -87 27 -12 16 -21 39 -21 51 0 12 -17 59 -39 103 -21 45 -47 101 -56 124
l-19 42 -17 -37 c-9 -20 -35 -75 -57 -122 -22 -47 -43 -104 -46 -127 -5 -36
-3 -42 14 -45 15 -2 17 -7 10 -18 -9 -13 -11 -13 -19 -1 -8 12 -14 13 -36 3
-32 -15 -72 -16 -80 -2 -3 6 -17 10 -31 10 -28 0 -26 -19 -25 320 1 113 -2
221 -7 240 -7 31 -11 35 -45 38 l-37 3 0 -300 0 -301 -70 0 -70 0 0 310 0 310
34 0 c21 0 36 6 40 15 4 12 30 15 145 15 77 0 151 -4 165 -10z m-1587 -43 c91
-58 113 -115 113 -294 0 -150 -13 -194 -73 -253 -39 -38 -112 -68 -168 -69
-88 -2 -187 59 -226 138 -14 29 -17 64 -18 181 0 162 8 198 58 252 55 61 107
79 209 73 48 -3 77 -10 105 -28z m4202 -1 c24 -12 49 -30 55 -41 6 -11 13 -22
17 -25 42 -38 56 -319 20 -402 -37 -82 -90 -121 -182 -133 -117 -15 -209 27
-255 115 -16 30 -19 58 -19 200 0 147 3 169 21 201 29 51 55 76 87 84 15 4 27
11 27 15 0 27 168 17 229 -14z m-6029 -221 l0 -244 83 -3 82 -3 3 -62 3 -63
-241 0 -240 0 0 65 0 65 86 0 87 0 -5 233 c-3 127 -3 238 -1 245 3 8 27 12 74
12 l69 0 0 -245z m360 120 l0 -125 100 0 100 0 0 125 0 125 70 0 c64 0 70 -2
75 -22 3 -13 4 -151 3 -308 l-3 -285 -72 -3 -73 -3 0 121 0 120 -100 0 -100 0
0 -120 0 -120 -70 0 -70 0 0 310 0 310 70 0 70 0 0 -125z m860 60 l0 -65 -140
0 -140 0 0 -60 0 -59 118 -3 117 -3 0 -60 0 -60 -117 -3 -118 -3 0 -54 0 -54
138 -3 137 -3 3 -59 c2 -41 -1 -62 -10 -67 -15 -10 -378 -12 -402 -3 -14 5
-16 41 -16 299 0 161 3 300 6 309 5 14 34 16 215 16 l209 0 0 -65z m940 -39
c0 -121 -4 -116 104 -116 58 0 83 -5 122 -25 44 -23 61 -25 172 -25 l122 0 0
135 0 135 70 0 70 0 0 -146 c0 -131 2 -148 20 -171 11 -14 20 -30 20 -36 0 -6
-9 -2 -20 8 -20 18 -20 17 -20 -63 l0 -81 83 -3 82 -3 3 -62 3 -63 -241 0
-240 0 0 65 0 65 86 0 87 0 -8 93 c-4 50 -8 93 -10 95 -4 4 -199 20 -203 16
-2 -1 1 -19 8 -39 20 -59 9 -175 -19 -217 -46 -66 -66 -72 -257 -76 -136 -3
-172 -1 -176 10 -3 7 -3 147 0 311 l5 297 68 0 69 0 0 -104z m1884 44 l18 -60
103 0 103 0 7 30 c4 17 13 44 22 61 15 29 16 30 81 27 l67 -3 -3 -30 c-2 -16
-7 -32 -11 -35 -4 -3 -20 -45 -36 -95 -15 -49 -31 -94 -36 -100 -5 -5 -9 -16
-9 -25 0 -8 -6 -26 -13 -40 -8 -14 -19 -48 -26 -75 -7 -27 -16 -54 -21 -60 -4
-5 -11 -25 -15 -43 -4 -18 -13 -45 -21 -60 -8 -15 -14 -33 -14 -39 0 -9 -21
-13 -70 -13 -80 0 -76 -4 -116 118 -22 67 -49 142 -74 207 -5 11 -20 56 -35
100 -15 44 -33 92 -41 107 -8 14 -14 40 -14 57 l0 31 68 0 68 0 18 -60z m868
31 c2 -16 2 -45 0 -65 l-4 -36 -139 0 -139 0 0 -245 0 -245 -70 0 -70 0 0 310
0 310 209 0 209 0 4 -29z m537 12 c5 -10 19 -54 31 -98 12 -44 26 -84 30 -90
4 -5 11 -26 15 -45 4 -19 11 -41 16 -50 10 -20 38 -105 50 -155 5 -22 16 -53
23 -70 8 -16 17 -45 21 -63 l7 -33 -72 3 -72 3 -18 52 c-10 28 -21 70 -25 92
-4 23 -10 43 -15 46 -5 3 -11 22 -15 43 -3 20 -15 62 -25 92 l-19 55 -15 -37
c-9 -21 -16 -42 -16 -47 0 -12 -37 -134 -50 -166 -5 -11 -11 -33 -15 -50 -3
-16 -11 -42 -17 -57 -10 -27 -13 -28 -79 -28 -53 0 -69 3 -69 14 0 14 93 309
110 351 13 32 41 116 53 165 22 83 30 90 97 90 46 0 61 -4 69 -17z m2261 -48
l0 -65 -140 0 -140 0 0 -244 0 -244 -30 -7 c-17 -4 -48 -4 -69 0 l-39 6 -7 62
c-10 75 -13 268 -5 282 3 6 5 24 6 40 0 17 1 76 2 133 l2 102 210 0 210 0 0
-65z m797 -207 c-3 -7 -5 -2 -5 12 0 14 2 19 5 13 2 -7 2 -19 0 -25z m-10130
-95 c-3 -10 -5 -4 -5 12 0 17 2 24 5 18 2 -7 2 -21 0 -30z m8883 2 c0 -9 -6
-12 -15 -9 -8 4 -15 10 -15 15 0 5 7 9 15 9 8 0 15 -7 15 -15z m-2020 -352 c0
-38 3 -141 7 -230 l6 -163 -54 0 c-167 0 -661 -1 -701 0 l-48 0 0 223 c0 123
3 227 7 230 3 4 181 7 395 7 l388 0 0 -67z m-6900 -423 c-6 -184 -15 -366 -20
-405 -5 -38 -11 -171 -15 -295 -3 -124 -11 -252 -16 -285 -13 -74 -44 -143
-74 -167 -13 -10 -43 -37 -67 -61 -24 -23 -64 -59 -89 -78 -78 -64 -296 -175
-275 -140 4 6 15 11 26 11 17 0 29 15 26 35 0 5 -16 8 -33 6 -36 -3 -38 0 -22
31 8 16 8 22 -2 29 -9 5 -13 28 -13 64 l1 57 -28 -6 c-16 -3 -29 -1 -29 4 0 6
4 10 9 10 4 0 9 36 10 81 1 44 4 86 7 93 3 8 -2 30 -10 51 -9 21 -16 59 -16
85 0 41 4 51 27 68 25 18 26 21 15 65 -16 62 -15 88 4 101 12 9 16 32 17 94 2
58 6 82 15 82 7 0 12 13 12 29 0 16 7 36 15 45 17 16 21 41 5 31 -15 -9 -12
15 4 31 8 8 18 36 22 62 4 26 12 50 18 54 8 5 7 8 -1 8 -9 0 -7 6 5 18 9 11
19 18 22 17 3 -1 13 6 23 17 9 10 15 18 12 18 -6 0 6 16 38 51 9 10 17 31 18
47 l1 27 8 -25 c6 -18 8 -20 9 -7 1 19 30 55 32 40 3 -20 20 65 19 94 0 21 7
39 20 50 11 10 20 26 20 36 0 15 5 18 24 13 26 -6 76 11 76 26 0 4 11 8 24 8
20 0 25 6 29 38 3 20 9 53 13 72 7 34 8 34 15 10 6 -22 7 -23 8 -4 1 12 8 27
17 34 13 11 16 10 21 -8 10 -40 23 -11 25 56 l2 67 4 -75 c2 -41 -1 -226 -8
-410z m5060 450 c0 -6 -4 -18 -9 -28 -5 -9 -12 -25 -15 -34 -3 -11 -15 -18
-31 -18 -23 0 -25 4 -25 45 l0 45 40 0 c22 0 40 -5 40 -10z m47 4 c-3 -3 -12
-4 -19 -1 -8 3 -5 6 6 6 11 1 17 -2 13 -5z m-4 -53 c-4 -17 1 -20 38 -24 40
-3 39 -4 -13 -5 -62 -2 -83 12 -53 35 26 18 34 16 28 -6z m134 -27 c-3 -3 -12
-4 -19 -1 -8 3 -5 6 6 6 11 1 17 -2 13 -5z m-5901 -201 c-10 -56 -16 -73 -27
-73 -15 0 -11 36 9 74 22 45 26 45 18 -1z m8471 31 c-3 -3 -12 -4 -19 -1 -8 3
-5 6 6 6 11 1 17 -2 13 -5z m-8507 -24 c0 -5 -4 -10 -10 -10 -5 0 -10 5 -10
10 0 6 5 10 10 10 6 0 10 -4 10 -10z m5544 -260 c30 -11 34 -38 9 -47 -10 -4
-23 -13 -29 -21 -7 -10 -20 -12 -42 -7 -28 6 -32 11 -32 40 0 31 3 34 33 38
17 2 33 5 34 5 1 1 13 -2 27 -8z m-3685 -36 c12 -4 13 -29 6 -152 -4 -81 -11
-217 -14 -302 l-6 -155 -205 -7 c-112 -3 -240 -11 -285 -17 -44 -5 -108 -13
-142 -16 -35 -3 -88 -15 -119 -26 -32 -10 -58 -18 -60 -16 -6 6 33 668 42 695
3 11 72 12 386 7 211 -4 389 -9 397 -11z m6651 -4 c0 -13 -5 -18 -15 -14 -16
7 -19 17 -8 27 12 13 23 7 23 -13z m-2630 -105 c0 -18 31 -20 48 -3 9 9 12 9
12 0 0 -15 59 -13 78 2 10 7 16 5 23 -5 7 -11 9 -10 9 6 1 19 1 19 14 3 14
-19 61 -24 71 -8 8 14 45 13 45 -1 0 -8 5 -8 15 1 12 10 15 10 15 0 0 -9 7 -7
20 5 18 16 20 16 20 2 0 -15 17 -17 155 -17 141 0 155 2 155 18 1 16 1 16 11
0 12 -22 35 -23 43 -3 3 8 10 15 16 15 5 0 10 -7 10 -15 0 -17 35 -21 45 -5 5
8 11 8 19 1 17 -15 1852 -15 1861 -1 4 7 11 7 18 2 18 -14 120 -13 130 1 7 9
10 9 14 0 3 -8 25 -13 59 -13 40 0 56 -4 61 -16 3 -8 2 -19 -3 -24 -9 -8
-1296 -13 -2736 -11 -691 1 -698 1 -698 21 0 19 7 20 185 20 170 0 186 2 203
19 21 24 82 28 82 6z m-3883 -315 l-15 -45 0 80 0 80 15 -35 c13 -31 13 -40 0
-80z m-1258 -831 c-8 -30 -19 -39 -97 -75 -48 -23 -98 -45 -111 -49 -13 -4
-46 -20 -73 -36 -67 -40 -127 -65 -170 -73 -20 -4 -50 -13 -65 -21 -15 -8 -35
-15 -43 -15 -8 0 -1 7 15 16 82 44 143 74 150 74 4 0 34 18 67 41 99 67 323
184 335 175 1 -1 -2 -18 -8 -37z m4801 -319 c11 -7 2 -10 -32 -10 -25 0 -55
-3 -65 -6 -16 -6 -16 -5 2 9 22 18 72 22 95 7z m291 -2 c47 -25 87 -78 59 -78
-5 0 -10 4 -10 8 0 5 -9 19 -20 32 -14 16 -34 24 -71 28 -33 3 -46 8 -37 13
19 12 52 11 79 -3z m287 -32 c48 -37 92 -85 101 -110 16 -39 13 -57 -3 -21
-14 32 -98 115 -115 115 -14 0 -14 -23 0 -37 15 -15 23 -174 10 -193 -16 -23
-87 -19 -113 8 -18 17 -23 36 -26 92 -4 68 10 130 29 130 14 0 10 -26 -6 -40
-10 -9 -15 -31 -15 -74 1 -50 5 -66 25 -88 30 -35 62 -36 77 -3 12 26 -4 158
-22 179 -4 6 -11 28 -15 49 l-8 39 33 -17 c18 -9 40 -22 48 -29z m352 34 c0
-5 5 -10 12 -10 14 0 58 -40 58 -52 0 -5 -12 4 -26 19 -23 24 -33 28 -82 28
-57 0 -90 -17 -105 -56 -4 -11 -6 -11 -6 1 -1 17 41 60 58 60 6 0 11 5 11 10
0 6 18 10 40 10 22 0 40 -4 40 -10z m170 -28 c0 -4 12 -21 28 -38 61 -67 131
-158 126 -164 -3 -3 -12 4 -20 14 -32 44 -65 76 -79 76 -8 0 -15 -4 -15 -9 0
-13 -62 -81 -74 -81 -6 0 4 13 21 28 17 16 38 42 46 59 15 27 14 32 0 54 -9
13 -23 28 -30 32 -7 4 -13 13 -13 19 0 6 -8 17 -17 25 -16 13 -16 13 5 3 12
-6 22 -14 22 -18z m146 1 c-15 -15 -35 -40 -44 -55 -9 -15 -20 -28 -24 -28
-15 0 -8 15 27 54 19 22 35 43 35 48 0 4 7 8 16 8 13 0 10 -6 -10 -27z m-1201
6 c11 -16 1 -19 -13 -3 -7 8 -8 14 -3 14 5 0 13 -5 16 -11z m133 -3 c-7 -8
-15 -12 -17 -11 -5 6 10 25 20 25 5 0 4 -6 -3 -14z m4897 -126 l0 -135 -43 -3
c-74 -5 -142 56 -142 128 0 34 29 80 50 80 15 0 20 7 20 29 0 35 10 41 70 38
l45 -2 0 -135z m2242 115 c8 -9 21 -45 29 -81 18 -90 10 -104 -61 -104 l-54 0
-3 -37 c-4 -52 -28 -56 -28 -4 l0 41 -49 0 c-71 0 -81 6 -81 50 0 39 23 114
41 137 17 20 185 18 206 -2z m-627 -17 c0 -6 -8 -20 -17 -30 -13 -14 -14 -21
-5 -30 7 -7 12 -31 12 -53 0 -57 -54 -115 -106 -115 -45 0 -85 23 -107 62 -18
32 -23 98 -7 98 6 0 10 6 10 13 0 7 13 23 30 35 32 24 98 30 118 10 10 -9 16
-8 29 5 20 20 43 22 43 5z m-12720 -13 c0 -6 -57 -11 -145 -13 -126 -2 -145 0
-145 13 0 13 19 15 145 13 88 -2 145 -7 145 -13z m11415 -30 c0 -5 -13 -12
-29 -15 -35 -6 -40 -24 -8 -28 12 -2 22 -7 22 -12 0 -5 -10 -10 -22 -12 -34
-4 -28 -23 8 -26 29 -3 30 -1 40 50 l9 53 44 0 c42 0 45 -2 53 -34 13 -48 6
-95 -14 -99 -14 -3 -17 6 -20 50 -2 39 -7 53 -18 53 -11 0 -16 -14 -18 -52
l-3 -51 -72 1 -72 2 -3 54 c-4 77 -1 83 55 79 27 -2 48 -7 48 -13z m175 -5 c0
-11 4 -20 9 -20 5 0 11 9 14 20 3 12 14 20 26 20 23 0 28 -19 9 -38 -9 -9 -9
-15 0 -24 7 -7 12 -21 12 -33 0 -32 -20 -45 -67 -45 l-43 0 0 70 c0 63 2 70
20 70 13 0 20 -7 20 -20z m220 0 c0 -11 -4 -20 -10 -20 -14 0 -12 -58 2 -62
24 -8 -1 -38 -32 -38 -25 0 -33 6 -47 35 -16 33 -16 37 0 70 14 30 21 35 52
35 28 0 35 -4 35 -20z m-5730 2 c0 -12 -68 -40 -115 -47 l-40 -7 29 16 c15 9
38 16 50 16 11 0 32 7 46 14 32 18 30 17 30 8z m5993 -43 c27 -31 28 -53 2
-43 -7 3 -16 12 -19 20 -8 20 -29 17 -50 -7 -13 -16 -21 -18 -29 -10 -8 8 -3
19 18 41 16 16 34 30 40 30 6 0 23 -14 38 -31z m-12063 -9 c0 -6 -57 -10 -150
-10 -93 0 -150 4 -150 10 0 6 57 10 150 10 93 0 150 -4 150 -10z m6380 -7 c0
-5 -15 -24 -33 -45 -23 -26 -43 -38 -72 -42 -22 -3 -33 -3 -25 0 61 23 110 59
110 82 0 6 5 12 10 12 6 0 10 -3 10 -7z m636 -31 c-4 -11 -26 -30 -49 -42 -47
-25 -81 -23 -114 7 -10 10 -13 14 -6 9 7 -5 38 -9 68 -10 56 0 95 21 95 52 0
9 3 13 6 9 3 -3 3 -14 0 -25z m-798 -33 c10 0 12 -3 5 -5 -15 -7 -53 13 -53
27 0 6 7 3 16 -5 8 -9 23 -16 32 -17z m522 23 c0 -5 -11 -14 -25 -20 -29 -13
-33 -46 -7 -61 14 -9 13 -10 -10 -11 -25 0 -28 4 -28 33 0 24 7 36 28 49 31
19 42 21 42 10z m-695 -22 c-3 -5 -14 -10 -23 -9 -14 0 -13 2 3 9 27 11 27 11
20 0z m-6055 -15 c0 -6 -57 -11 -145 -13 -126 -2 -145 0 -145 13 0 13 19 15
145 13 88 -2 145 -7 145 -13z m5995 0 c29 -13 29 -13 5 -14 -14 0 -36 6 -50
14 -22 13 -23 14 -5 14 11 0 34 -6 50 -14z"/>
<path d="M5970 4343 c-8 -3 -24 -15 -35 -27 -18 -19 -20 -34 -20 -162 0 -139
0 -142 25 -162 30 -25 73 -38 78 -23 2 5 9 8 15 6 7 -3 23 4 36 14 22 17 25
30 34 134 9 101 8 122 -7 161 -13 34 -25 47 -48 55 -33 12 -54 13 -78 4z"/>
<path d="M6957 4294 c-4 -4 -7 -20 -7 -36 l0 -28 91 0 90 0 -3 33 -3 32 -80 3
c-45 1 -84 0 -88 -4z"/>
<path d="M8260 4343 c-44 -18 -53 -42 -58 -164 -3 -85 -2 -119 7 -119 6 0 11
-9 11 -21 0 -11 4 -18 9 -14 5 3 11 -5 13 -17 2 -12 15 -29 30 -38 25 -14 31
-13 64 5 20 10 40 31 46 45 5 14 8 82 6 152 -3 113 -5 130 -24 148 -21 21 -78
34 -104 23z"/>
<path d="M10385 3317 c4 -8 21 -11 53 -9 72 6 76 22 4 22 -45 0 -60 -3 -57
-13z"/>
<path d="M10410 3268 c0 -36 25 -123 32 -113 3 6 11 30 18 55 6 25 13 53 16
63 4 14 -1 17 -30 17 -31 0 -36 -3 -36 -22z"/>
<path d="M5111 3414 c-28 -35 -34 -77 -29 -187 3 -65 9 -100 21 -118 34 -52
134 -45 157 11 7 18 10 73 8 153 -4 151 -12 167 -89 167 -39 0 -51 -4 -68 -26z"/>
<path d="M9340 3443 c-8 -3 -24 -15 -35 -27 -18 -18 -20 -34 -20 -159 l0 -139
35 -29 c40 -34 61 -36 105 -9 41 25 55 72 55 183 0 109 -19 161 -62 176 -33
12 -54 13 -78 4z"/>
<path d="M5653 3224 c-9 -4 -13 -29 -13 -75 l0 -69 68 0 c59 0 72 3 90 23 49
52 10 113 -78 121 -30 3 -61 3 -67 0z"/>
<path d="M7590 3303 c5 -16 16 -53 26 -83 21 -69 31 -81 40 -44 4 16 10 34 14
39 6 9 30 95 30 109 0 3 -27 6 -59 6 l-60 0 9 -27z"/>
<path d="M7993 2883 c-7 -3 -13 -13 -13 -23 0 -19 17 -30 38 -23 6 3 12 13 12
23 0 19 -17 30 -37 23z"/>
<path d="M8643 2883 c-15 -5 -17 -43 -3 -43 6 0 10 -37 10 -91 0 -49 4 -88 9
-85 5 3 6 41 4 85 -3 51 -1 81 6 85 28 17 4 60 -26 49z"/>
<path d="M8130 2861 c-5 -11 -7 -27 -4 -35 11 -28 74 -17 74 13 0 40 -51 56
-70 22z"/>
<path d="M8302 2868 c-21 -21 -14 -47 14 -54 36 -9 60 15 45 45 -13 23 -40 28
-59 9z"/>
<path d="M8471 2862 c-12 -22 4 -52 27 -52 31 0 45 16 38 44 -8 31 -50 36 -65
8z"/>
<path d="M7992 2749 c4 -93 23 -94 23 -2 0 46 -4 68 -13 71 -10 3 -12 -13 -10
-69z"/>
<path d="M8131 2751 c-7 -13 -6 -23 3 -36 17 -23 66 -13 66 13 0 40 -51 57
-69 23z"/>
<path d="M8253 2748 c3 -10 1 -18 -4 -18 -5 0 -9 -7 -9 -16 0 -13 7 -15 33
-11 17 2 39 1 47 -3 17 -9 43 6 53 30 3 10 6 7 6 -8 1 -18 6 -23 23 -20 30 4
33 61 4 66 -10 2 -22 -2 -27 -9 -5 -9 -11 -10 -21 -2 -7 6 -35 10 -61 10 -42
0 -48 -3 -44 -19z"/>
<path d="M8474 2746 c-7 -30 1 -46 24 -46 31 0 45 16 38 44 -9 36 -53 37 -62
2z"/>
<path d="M8147 2659 c-21 -12 -23 -52 -3 -68 18 -15 56 5 56 30 0 26 -32 49
-53 38z"/>
<path d="M8301 2639 c-11 -19 -10 -24 7 -41 17 -17 22 -18 41 -7 24 16 27 35
7 55 -20 20 -39 17 -55 -7z"/>
<path d="M8474 2634 c-9 -37 15 -61 45 -42 23 14 27 38 9 56 -21 21 -47 14
-54 -14z"/>
<path d="M8010 2595 c12 -15 30 -12 30 6 0 5 -10 9 -21 9 -18 0 -19 -2 -9 -15z"/>
<path d="M8190 2502 c-5 -2 -10 -10 -10 -18 0 -11 27 -14 150 -14 127 0 150 2
150 15 0 12 -14 15 -62 16 -35 0 -98 1 -140 2 -43 1 -82 1 -88 -1z"/>
<path d="M8643 2503 c-10 -4 -9 -8 2 -20 16 -15 45 -12 45 6 0 11 -30 19 -47
14z"/>
<path d="M1813 2715 c0 -22 2 -30 4 -17 2 12 2 30 0 40 -3 9 -5 -1 -4 -23z"/>
<path d="M6835 2870 c3 -5 8 -10 11 -10 2 0 4 5 4 10 0 6 -5 10 -11 10 -5 0
-7 -4 -4 -10z"/>
<path d="M6837 2830 c-3 -11 -1 -20 4 -20 5 0 9 9 9 20 0 11 -2 20 -4 20 -2 0
-6 -9 -9 -20z"/>
<path d="M6623 2323 c-13 -2 -23 -9 -23 -14 0 -15 40 -10 56 6 16 16 13 17
-33 8z"/>
<path d="M13783 671 c-7 -11 -15 -42 -19 -70 l-7 -51 111 0 c61 0 113 3 116 8
4 8 -18 105 -29 122 -3 6 -41 10 -83 10 -65 0 -79 -3 -89 -19z"/>
<path d="M13169 631 c-17 -18 -29 -40 -29 -56 0 -35 50 -85 85 -85 35 0 85 50
85 85 0 35 -50 85 -85 85 -16 0 -38 -12 -56 -29z"/>
<path d="M12220 565 c0 -9 5 -15 11 -13 6 2 11 8 11 13 0 5 -5 11 -11 13 -6 2
-11 -4 -11 -13z"/>
</g>
</svg>
