<?xml version="1.0" encoding="UTF-8"?>
<svg width="81px" height="33px" viewBox="0 0 81 33" version="1.1" xmlns="http://www.w3.org/2000/svg" xmlns:xlink="http://www.w3.org/1999/xlink">
    <title>WEB</title>
    <g id="Page-1" stroke="none" stroke-width="1" fill="none" fill-rule="evenodd">
        <g id="GINEVARPAGE1" transform="translate(-302.000000, -1348.000000)" fill="#FFF133" fill-rule="nonzero">
            <path d="M302.035156,1380.26562 C302.972656,1380.10938 303.825521,1379.9987 304.59375,1379.93359 C306.416667,1379.77734 308.382812,1379.79688 310.492188,1379.99219 C312.236979,1376.15104 313.558594,1373.26693 314.457031,1371.33984 C314.421689,1374.56777 314.402335,1377.05491 314.398969,1378.80127 L314.398438,1379.32812 C316.442708,1378.78125 318.278646,1378.4362 319.90625,1378.29297 C320.856771,1378.21484 322.054688,1378.18229 323.5,1378.19531 C327.940104,1366.84115 332.048177,1356.86719 335.824219,1348.27344 L335.824219,1348.27344 L328.636719,1348.50781 C326.78776,1353.01302 325.440104,1356.39844 324.59375,1358.66406 C323.018229,1362.77865 322.184896,1364.96615 322.09375,1365.22656 C322.158854,1360.22656 322.529948,1355.46094 323.207031,1350.92969 L323.207031,1350.92969 L315.726562,1350.44141 C315.440104,1352.48568 315.283854,1354.09375 315.257812,1355.26562 C313.903646,1357.77865 312.197917,1361.56771 310.140625,1366.63281 C310.296875,1362.34896 310.895833,1356.63932 311.9375,1349.50391 L311.9375,1349.50391 L304.730469,1349.75781 C303.97526,1354.9401 303.34375,1360.47396 302.835938,1366.35938 C302.367188,1371.45052 302.10026,1376.08594 302.035156,1380.26562 Z M332.062086,1380.92969 C335.369378,1380.48698 338.37068,1380.14193 341.065993,1379.89453 C343.800368,1379.67318 346.769118,1379.4974 349.972243,1379.36719 L349.972243,1379.36719 L351.925368,1372.00391 C349.789951,1372.06901 347.856357,1372.17969 346.124586,1372.33594 C344.549066,1372.46615 343.019118,1372.62891 341.534743,1372.82422 C341.690993,1372.00391 341.847243,1371.26172 342.003493,1370.59766 C342.198805,1369.84245 342.452711,1369.05469 342.765211,1368.23438 C344.236566,1367.98698 345.571201,1367.8112 346.769118,1367.70703 C348.227451,1367.5638 349.946201,1367.50521 351.925368,1367.53125 L351.925368,1367.53125 L353.937086,1360.10938 C352.049066,1360.17448 350.310784,1360.27214 348.722243,1360.40234 C347.43318,1360.50651 346.111566,1360.66276 344.757399,1360.87109 C345.030836,1359.71224 345.265211,1358.72266 345.460524,1357.90234 C345.616774,1357.34245 345.773024,1356.79557 345.929274,1356.26172 C347.179274,1356.10547 348.546461,1355.96224 350.030836,1355.83203 C351.788649,1355.67578 353.865472,1355.55208 356.261305,1355.46094 L356.261305,1355.46094 L358.565993,1348.13672 C355.493076,1348.51432 352.973545,1348.78776 351.007399,1348.95703 C347.374586,1349.26953 342.960524,1349.53646 337.765211,1349.75781 L337.765211,1349.75781 L336.065993,1356.67188 L338.507399,1356.57422 C337.361566,1360.23307 336.300368,1363.88542 335.323805,1367.53125 C334.243076,1371.58073 333.155836,1376.04688 332.062086,1380.92969 Z M352.557766,1379.93359 C356.177558,1380.40234 360.187975,1380.4349 364.589016,1380.03125 C367.570787,1379.78385 370.363756,1378.85938 372.967923,1377.25781 C375.962714,1375.42188 377.857246,1373.05859 378.651516,1370.16797 C379.406725,1367.27734 378.664537,1365.03125 376.424954,1363.42969 C379.602037,1361.125 381.568183,1358.54688 382.323391,1355.69531 C383.742662,1350.36979 379.934069,1348.09115 370.89761,1348.85938 C370.246569,1348.92448 369.273261,1349.03516 367.977688,1349.19141 L367.660509,1349.22965 C366.522135,1349.36692 365.654555,1349.47135 365.057766,1349.54297 C363.833808,1349.62109 362.414537,1349.875 360.799954,1350.30469 L360.799954,1350.30469 L359.999173,1357.16016 C360.793444,1356.9388 361.444485,1356.77604 361.952298,1356.67188 C359.777819,1363.72917 358.013496,1369.32812 356.659329,1373.46875 L356.659329,1373.46875 L355.389798,1373.33203 L352.557766,1379.93359 Z M366.952298,1361.63281 L368.729641,1356.57422 L367.557766,1355.89062 C372.466621,1355.47396 374.712714,1356.09896 374.296048,1357.76562 C373.697089,1359.92708 371.249173,1361.21615 366.952298,1361.63281 L366.952298,1361.63281 Z M365.624173,1373.42969 C365.155423,1373.48177 364.387194,1373.48177 363.319485,1373.42969 L363.319485,1373.42969 L365.018704,1367.57031 C365.487454,1367.50521 365.923652,1367.44661 366.327298,1367.39453 C367.811673,1367.29036 369.02261,1367.40104 369.96011,1367.72656 C371.275214,1368.22135 371.763496,1369.11328 371.424954,1370.40234 C371.177558,1371.35286 370.331204,1372.10807 368.885891,1372.66797 C367.844225,1373.07161 366.756985,1373.32552 365.624173,1373.42969 Z" id="WEB"></path>
        </g>
    </g>
</svg>