<?xml version="1.0" encoding="UTF-8"?>
<svg width="108px" height="33px" viewBox="0 0 108 33" version="1.1" xmlns="http://www.w3.org/2000/svg" xmlns:xlink="http://www.w3.org/1999/xlink">
    <title>WEB3</title>
    <g id="Page-1" stroke="none" stroke-width="1" fill="none" fill-rule="evenodd">
        <g id="GINEVARPAGE1" transform="translate(-1154.000000, -1338.000000)" fill="#FFF133" fill-rule="nonzero">
            <path d="M1154.03516,1370.26562 C1154.97266,1370.10938 1155.82552,1369.9987 1156.59375,1369.93359 C1158.41667,1369.77734 1160.38281,1369.79688 1162.49219,1369.99219 C1164.23698,1366.15104 1165.55859,1363.26693 1166.45703,1361.33984 C1166.42169,1364.56777 1166.40233,1367.05491 1166.39897,1368.80127 L1166.39844,1369.32812 C1168.44271,1368.78125 1170.27865,1368.4362 1171.90625,1368.29297 C1172.85677,1368.21484 1174.05469,1368.18229 1175.5,1368.19531 C1179.9401,1356.84115 1184.04818,1346.86719 1187.82422,1338.27344 L1187.82422,1338.27344 L1180.63672,1338.50781 C1178.78776,1343.01302 1177.4401,1346.39844 1176.59375,1348.66406 C1175.01823,1352.77865 1174.1849,1354.96615 1174.09375,1355.22656 C1174.15885,1350.22656 1174.52995,1345.46094 1175.20703,1340.92969 L1175.20703,1340.92969 L1167.72656,1340.44141 C1167.4401,1342.48568 1167.28385,1344.09375 1167.25781,1345.26562 C1165.90365,1347.77865 1164.19792,1351.56771 1162.14062,1356.63281 C1162.29688,1352.34896 1162.89583,1346.63932 1163.9375,1339.50391 L1163.9375,1339.50391 L1156.73047,1339.75781 C1155.97526,1344.9401 1155.34375,1350.47396 1154.83594,1356.35938 C1154.36719,1361.45052 1154.10026,1366.08594 1154.03516,1370.26562 Z M1184.06209,1370.92969 C1187.36938,1370.48698 1190.37068,1370.14193 1193.06599,1369.89453 C1195.80037,1369.67318 1198.76912,1369.4974 1201.97224,1369.36719 L1201.97224,1369.36719 L1203.92537,1362.00391 C1201.78995,1362.06901 1199.85636,1362.17969 1198.12459,1362.33594 C1196.54907,1362.46615 1195.01912,1362.62891 1193.53474,1362.82422 C1193.69099,1362.00391 1193.84724,1361.26172 1194.00349,1360.59766 C1194.19881,1359.84245 1194.45271,1359.05469 1194.76521,1358.23438 C1196.23657,1357.98698 1197.5712,1357.8112 1198.76912,1357.70703 C1200.22745,1357.5638 1201.9462,1357.50521 1203.92537,1357.53125 L1203.92537,1357.53125 L1205.93709,1350.10938 C1204.04907,1350.17448 1202.31078,1350.27214 1200.72224,1350.40234 C1199.43318,1350.50651 1198.11157,1350.66276 1196.7574,1350.87109 C1197.03084,1349.71224 1197.26521,1348.72266 1197.46052,1347.90234 C1197.61677,1347.34245 1197.77302,1346.79557 1197.92927,1346.26172 C1199.17927,1346.10547 1200.54646,1345.96224 1202.03084,1345.83203 C1203.78865,1345.67578 1205.86547,1345.55208 1208.26131,1345.46094 L1208.26131,1345.46094 L1210.56599,1338.13672 C1207.49308,1338.51432 1204.97354,1338.78776 1203.0074,1338.95703 C1199.37459,1339.26953 1194.96052,1339.53646 1189.76521,1339.75781 L1189.76521,1339.75781 L1188.06599,1346.67188 L1190.5074,1346.57422 C1189.36157,1350.23307 1188.30037,1353.88542 1187.32381,1357.53125 C1186.24308,1361.58073 1185.15584,1366.04688 1184.06209,1370.92969 Z M1204.55777,1369.93359 C1208.17756,1370.40234 1212.18797,1370.4349 1216.58902,1370.03125 C1219.57079,1369.78385 1222.36376,1368.85938 1224.96792,1367.25781 C1227.96271,1365.42188 1229.85725,1363.05859 1230.65152,1360.16797 C1231.40672,1357.27734 1230.66454,1355.03125 1228.42495,1353.42969 C1231.60204,1351.125 1233.56818,1348.54688 1234.32339,1345.69531 C1235.74266,1340.36979 1231.93407,1338.09115 1222.89761,1338.85938 C1222.24657,1338.92448 1221.27326,1339.03516 1219.97769,1339.19141 L1219.66051,1339.22965 C1218.52214,1339.36692 1217.65455,1339.47135 1217.05777,1339.54297 C1215.83381,1339.62109 1214.41454,1339.875 1212.79995,1340.30469 L1212.79995,1340.30469 L1211.99917,1347.16016 C1212.79344,1346.9388 1213.44449,1346.77604 1213.9523,1346.67188 C1211.77782,1353.72917 1210.0135,1359.32812 1208.65933,1363.46875 L1208.65933,1363.46875 L1207.3898,1363.33203 L1204.55777,1369.93359 Z M1218.9523,1351.63281 L1220.72964,1346.57422 L1219.55777,1345.89062 C1224.46662,1345.47396 1226.71271,1346.09896 1226.29605,1347.76562 C1225.69709,1349.92708 1223.24917,1351.21615 1218.9523,1351.63281 L1218.9523,1351.63281 Z M1217.62417,1363.42969 C1217.15542,1363.48177 1216.38719,1363.48177 1215.31949,1363.42969 L1215.31949,1363.42969 L1217.0187,1357.57031 C1217.48745,1357.50521 1217.92365,1357.44661 1218.3273,1357.39453 C1219.81167,1357.29036 1221.02261,1357.40104 1221.96011,1357.72656 C1223.27521,1358.22135 1223.7635,1359.11328 1223.42495,1360.40234 C1223.17756,1361.35286 1222.3312,1362.10807 1220.88589,1362.66797 C1219.84422,1363.07161 1218.75699,1363.32552 1217.62417,1363.42969 Z M1236.36204,1367.86328 C1237.91152,1369.64714 1240.15761,1370.40234 1243.10032,1370.12891 C1246.09511,1369.88151 1248.98248,1368.56966 1251.76243,1366.19336 C1254.54238,1363.81706 1256.34251,1361.08594 1257.16282,1358 C1257.73574,1355.91667 1257.75201,1354.10677 1257.21165,1352.57031 C1256.67129,1351.03385 1255.57428,1349.97917 1253.92063,1349.40625 L1253.92063,1349.40625 L1261.96751,1338 L1240.8347,1339.5625 L1238.92063,1346.63281 L1248.66673,1345.89062 L1241.42063,1356.49609 C1241.72011,1356.47005 1242.31256,1356.41797 1243.19798,1356.33984 C1243.95319,1356.27474 1244.55214,1356.21615 1244.99485,1356.16406 C1246.68756,1356.00781 1247.8985,1356.05339 1248.62767,1356.30078 C1249.76048,1356.71745 1250.1511,1357.64844 1249.79954,1359.09375 C1249.5261,1360.09635 1248.90761,1360.98177 1247.94407,1361.75 C1246.98053,1362.51823 1245.99746,1362.94792 1244.99485,1363.03906 C1243.97923,1363.13021 1243.23053,1362.87305 1242.74876,1362.26758 C1242.26699,1361.66211 1242.10423,1360.85156 1242.26048,1359.83594 L1242.26048,1359.83594 L1235.19017,1360.55859 C1234.39589,1363.59245 1234.78652,1366.02734 1236.36204,1367.86328 Z" id="WEB3"></path>
        </g>
    </g>
</svg>