<?xml version="1.0" encoding="UTF-8"?>
<svg width="162px" height="34px" viewBox="0 0 162 34" version="1.1" xmlns="http://www.w3.org/2000/svg" xmlns:xlink="http://www.w3.org/1999/xlink">
    <title>WEBSITE</title>
    <g id="Page-1" stroke="none" stroke-width="1" fill="none" fill-rule="evenodd">
        <g id="GINEVARPAGE1" transform="translate(-413.000000, -1361.000000)" fill="#FFF133" fill-rule="nonzero">
            <path d="M413.035156,1393.26562 C413.972656,1393.10938 414.825521,1392.9987 415.59375,1392.93359 C417.416667,1392.77734 419.382812,1392.79688 421.492188,1392.99219 C423.236979,1389.15104 424.558594,1386.26693 425.457031,1384.33984 C425.421689,1387.56777 425.402335,1390.05491 425.398969,1391.80127 L425.398438,1392.32812 C427.442708,1391.78125 429.278646,1391.4362 430.90625,1391.29297 C431.856771,1391.21484 433.054688,1391.18229 434.5,1391.19531 C438.940104,1379.84115 443.048177,1369.86719 446.824219,1361.27344 L446.824219,1361.27344 L439.636719,1361.50781 C437.78776,1366.01302 436.440104,1369.39844 435.59375,1371.66406 C434.018229,1375.77865 433.184896,1377.96615 433.09375,1378.22656 C433.158854,1373.22656 433.529948,1368.46094 434.207031,1363.92969 L434.207031,1363.92969 L426.726562,1363.44141 C426.440104,1365.48568 426.283854,1367.09375 426.257812,1368.26562 C424.903646,1370.77865 423.197917,1374.56771 421.140625,1379.63281 C421.296875,1375.34896 421.895833,1369.63932 422.9375,1362.50391 L422.9375,1362.50391 L415.730469,1362.75781 C414.97526,1367.9401 414.34375,1373.47396 413.835938,1379.35938 C413.367188,1384.45052 413.10026,1389.08594 413.035156,1393.26562 Z M443.062086,1393.92969 C446.369378,1393.48698 449.37068,1393.14193 452.065993,1392.89453 C454.800368,1392.67318 457.769118,1392.4974 460.972243,1392.36719 L460.972243,1392.36719 L462.925368,1385.00391 C460.789951,1385.06901 458.856357,1385.17969 457.124586,1385.33594 C455.549066,1385.46615 454.019118,1385.62891 452.534743,1385.82422 C452.690993,1385.00391 452.847243,1384.26172 453.003493,1383.59766 C453.198805,1382.84245 453.452711,1382.05469 453.765211,1381.23438 C455.236566,1380.98698 456.571201,1380.8112 457.769118,1380.70703 C459.227451,1380.5638 460.946201,1380.50521 462.925368,1380.53125 L462.925368,1380.53125 L464.937086,1373.10938 C463.049066,1373.17448 461.310784,1373.27214 459.722243,1373.40234 C458.43318,1373.50651 457.111566,1373.66276 455.757399,1373.87109 C456.030836,1372.71224 456.265211,1371.72266 456.460524,1370.90234 C456.616774,1370.34245 456.773024,1369.79557 456.929274,1369.26172 C458.179274,1369.10547 459.546461,1368.96224 461.030836,1368.83203 C462.788649,1368.67578 464.865472,1368.55208 467.261305,1368.46094 L467.261305,1368.46094 L469.565993,1361.13672 C466.493076,1361.51432 463.973545,1361.78776 462.007399,1361.95703 C458.374586,1362.26953 453.960524,1362.53646 448.765211,1362.75781 L448.765211,1362.75781 L447.065993,1369.67188 L449.507399,1369.57422 C448.361566,1373.23307 447.300368,1376.88542 446.323805,1380.53125 C445.243076,1384.58073 444.155836,1389.04688 443.062086,1393.92969 Z M463.557766,1392.93359 C467.177558,1393.40234 471.187975,1393.4349 475.589016,1393.03125 C478.570787,1392.78385 481.363756,1391.85938 483.967923,1390.25781 C486.962714,1388.42188 488.857246,1386.05859 489.651516,1383.16797 C490.406725,1380.27734 489.664537,1378.03125 487.424954,1376.42969 C490.602037,1374.125 492.568183,1371.54688 493.323391,1368.69531 C494.742662,1363.36979 490.934069,1361.09115 481.89761,1361.85938 C481.246569,1361.92448 480.273261,1362.03516 478.977688,1362.19141 L478.660509,1362.22965 C477.522135,1362.36692 476.654555,1362.47135 476.057766,1362.54297 C474.833808,1362.62109 473.414537,1362.875 471.799954,1363.30469 L471.799954,1363.30469 L470.999173,1370.16016 C471.793444,1369.9388 472.444485,1369.77604 472.952298,1369.67188 C470.777819,1376.72917 469.013496,1382.32812 467.659329,1386.46875 L467.659329,1386.46875 L466.389798,1386.33203 L463.557766,1392.93359 Z M477.952298,1374.63281 L479.729641,1369.57422 L478.557766,1368.89062 C483.466621,1368.47396 485.712714,1369.09896 485.296048,1370.76562 C484.697089,1372.92708 482.249173,1374.21615 477.952298,1374.63281 L477.952298,1374.63281 Z M476.624173,1386.42969 C476.155423,1386.48177 475.387194,1386.48177 474.319485,1386.42969 L474.319485,1386.42969 L476.018704,1380.57031 C476.487454,1380.50521 476.923652,1380.44661 477.327298,1380.39453 C478.811673,1380.29036 480.02261,1380.40104 480.96011,1380.72656 C482.275214,1381.22135 482.763496,1382.11328 482.424954,1383.40234 C482.177558,1384.35286 481.331204,1385.10807 479.885891,1385.66797 C478.844225,1386.07161 477.756985,1386.32552 476.624173,1386.42969 Z M489.42454,1394.73047 C493.044332,1394.41797 496.266988,1393.59766 499.092509,1392.26953 C502.933655,1390.47266 505.290426,1387.95964 506.162822,1384.73047 C506.722717,1382.59505 506.599019,1379.79557 505.791728,1376.33203 C505.010478,1373.0638 504.632874,1371.36458 504.658915,1371.23438 C504.880269,1370.4401 505.915426,1369.96484 507.764384,1369.80859 C508.089905,1369.78255 508.594462,1369.75651 509.278056,1369.73047 C509.96165,1369.70443 510.479228,1369.6849 510.83079,1369.67188 L510.83079,1369.67188 L511.065165,1369.59375 L513.565165,1361.9375 C511.585999,1361.72917 509.743551,1361.69661 508.037822,1361.83984 C506.13678,1362.00911 504.535217,1362.39323 503.233134,1362.99219 C501.631572,1363.73438 500.153707,1364.88346 498.79954,1366.43945 C497.445374,1367.99544 496.553447,1369.57422 496.123759,1371.17578 C495.772197,1372.4388 495.837301,1374.04688 496.319072,1376 C496.683655,1377.28906 497.028707,1378.59115 497.354228,1379.90625 C497.822978,1381.80729 497.946676,1383.13542 497.725322,1383.89062 C497.634176,1384.29427 497.510478,1384.56445 497.354228,1384.70117 C497.197978,1384.83789 496.891988,1384.99089 496.436259,1385.16016 C495.186259,1385.68099 493.259176,1386.13021 490.655009,1386.50781 L490.655009,1386.50781 L489.42454,1394.73047 Z M507.146783,1394.33984 C510.102512,1393.84505 512.674127,1393.50651 514.861627,1393.32422 C517.075168,1393.12891 519.5947,1393.01823 522.42022,1392.99219 L522.42022,1392.99219 L523.963189,1386.29297 L520.681939,1386.39062 C521.515272,1382.41927 522.361627,1378.79948 523.221002,1375.53125 C523.689752,1373.86458 524.269179,1371.87891 524.959283,1369.57422 L524.959283,1369.57422 L523.728814,1369.10547 C525.590793,1369.05339 527.198866,1369.05339 528.553033,1369.10547 L528.553033,1369.10547 L530.623345,1362.26953 C526.691054,1362.04818 523.025689,1362.09375 519.627252,1362.40625 C517.843397,1362.5625 516.47621,1362.67969 515.525689,1362.75781 L515.525689,1362.75781 L513.51397,1369.63281 C514.829075,1369.5026 515.922825,1369.41146 516.79522,1369.35938 C515.70147,1372.71875 514.809543,1375.6875 514.119439,1378.26562 C513.364231,1381.03906 512.674127,1383.99479 512.049127,1387.13281 L512.049127,1387.13281 L508.650689,1387.64062 L507.146783,1394.33984 Z M537.740119,1393.69531 C538.495328,1390.20573 539.322151,1386.82031 540.220588,1383.53906 C541.236213,1379.6849 542.564338,1375.2513 544.204963,1370.23828 L544.204963,1370.23828 L543.150276,1369.69141 L550.552619,1369.45703 L552.876838,1362.07422 L532.642463,1362.75781 L530.318244,1370.16016 L536.744026,1369.92578 C535.350796,1374.01432 534.15939,1377.90755 533.169807,1381.60547 C532.12814,1385.42057 531.197151,1389.39844 530.376838,1393.53906 L530.376838,1393.53906 L537.740119,1393.69531 Z M548.509237,1393.92969 C551.816529,1393.48698 554.817831,1393.14193 557.513143,1392.89453 C560.247518,1392.67318 563.216268,1392.4974 566.419393,1392.36719 L566.419393,1392.36719 L568.372518,1385.00391 C566.237101,1385.06901 564.303508,1385.17969 562.571737,1385.33594 C560.996216,1385.46615 559.466268,1385.62891 557.981893,1385.82422 C558.138143,1385.00391 558.294393,1384.26172 558.450643,1383.59766 C558.645956,1382.84245 558.899862,1382.05469 559.212362,1381.23438 C560.683716,1380.98698 562.018351,1380.8112 563.216268,1380.70703 C564.674601,1380.5638 566.393351,1380.50521 568.372518,1380.53125 L568.372518,1380.53125 L570.384237,1373.10938 C568.496216,1373.17448 566.757935,1373.27214 565.169393,1373.40234 C563.880331,1373.50651 562.558716,1373.66276 561.204549,1373.87109 C561.477987,1372.71224 561.712362,1371.72266 561.907674,1370.90234 C562.063924,1370.34245 562.220174,1369.79557 562.376424,1369.26172 C563.626424,1369.10547 564.993612,1368.96224 566.477987,1368.83203 C568.235799,1368.67578 570.312622,1368.55208 572.708456,1368.46094 L572.708456,1368.46094 L575.013143,1361.13672 C571.940226,1361.51432 569.420695,1361.78776 567.454549,1361.95703 C563.821737,1362.26953 559.407674,1362.53646 554.212362,1362.75781 L554.212362,1362.75781 L552.513143,1369.67188 L554.954549,1369.57422 C553.808716,1373.23307 552.747518,1376.88542 551.770956,1380.53125 C550.690226,1384.58073 549.602987,1389.04688 548.509237,1393.92969 Z" id="WEBSITE"></path>
        </g>
    </g>
</svg>