<?xml version="1.0" encoding="UTF-8"?>
<svg width="187px" height="36px" viewBox="0 0 187 36" version="1.1" xmlns="http://www.w3.org/2000/svg" xmlns:xlink="http://www.w3.org/1999/xlink">
    <title>websites</title>
    <g id="Page-1" stroke="none" stroke-width="1" fill="none" fill-rule="evenodd">
        <g id="GINEVARPAGE1" transform="translate(-576.000000, -1186.000000)" fill="#FFF133" fill-rule="nonzero">
            <path d="M576,1221 C577.144484,1220.79487 578.12669,1220.66667 578.946619,1220.61538 C580.808541,1220.44444 582.901068,1220.47009 585.224199,1220.69231 C586.078292,1218.65812 587.367972,1215.82051 589.093238,1212.17949 C589.059075,1215.64957 589.041993,1218.2735 589.041993,1220.05128 C591.262633,1219.4359 593.227046,1219.05128 594.935231,1218.89744 C595.925979,1218.81197 597.224199,1218.78632 598.829893,1218.82051 C603.407829,1207.04274 607.797865,1196.4359 612,1187 L612,1187 L604.082562,1187.28205 C602.101068,1192.05128 600.657651,1195.64957 599.752313,1198.07692 C598.727402,1200.7265 597.96726,1202.7094 597.471886,1204.02564 C597.557295,1199.18803 597.941637,1194.45299 598.624911,1189.82051 L598.624911,1189.82051 L590.528114,1189.28205 C590.203559,1191.64103 589.998577,1193.41026 589.913167,1194.58974 C588.512456,1197.17094 586.846975,1200.80342 584.916726,1205.48718 C585.155872,1201.24786 585.804982,1195.51282 586.864057,1188.28205 L586.864057,1188.28205 L578.946619,1188.58974 C577.255516,1200.53846 576.27331,1211.34188 576,1221 Z M609,1221 C612.658802,1220.48529 615.826376,1220.10784 618.502722,1219.86765 C621.212946,1219.62745 624.363581,1219.43873 627.954628,1219.30147 L627.954628,1219.30147 L630.063521,1211.16912 C627.844525,1211.2549 625.777979,1211.38358 623.863884,1211.55515 C622.136116,1211.70956 620.594676,1211.87255 619.239564,1212.04412 C619.375076,1211.20343 619.519056,1210.47426 619.671506,1209.85662 C619.840895,1209.1875 620.086509,1208.42402 620.408348,1207.56618 C621.966727,1207.30882 623.3049,1207.1201 624.422868,1207 C625.879613,1206.8799 627.717483,1206.81985 629.936479,1206.81985 L629.936479,1206.81985 L632.096189,1198.66176 C630.131276,1198.71324 628.284936,1198.81618 626.557169,1198.97059 C625.202057,1199.10784 623.889292,1199.25368 622.618875,1199.40809 C622.83908,1198.34436 623.042347,1197.46078 623.228675,1196.75735 C623.364186,1196.17402 623.533575,1195.57353 623.736842,1194.95588 C624.634604,1194.85294 625.947368,1194.72426 627.675136,1194.56985 C629.707804,1194.39828 631.977616,1194.25245 634.484574,1194.13235 L634.484574,1194.13235 L637,1186 C633.798548,1186.41176 631.15608,1186.70343 629.072595,1186.875 C625.261343,1187.23529 620.577737,1187.52696 615.021779,1187.75 L615.021779,1187.75 L613.116152,1195.39338 L615.631579,1195.31618 C614.564428,1198.86765 613.505747,1202.59926 612.455535,1206.51103 C611.252874,1211.02328 610.101028,1215.85294 609,1221 Z M632,1220.5714 C635.76537,1221.08572 639.87755,1221.13715 644.336541,1220.72569 C647.441319,1220.43424 650.298376,1219.43989 652.907712,1217.74262 C656.04552,1215.75391 658.010779,1213.20801 658.803488,1210.10493 C659.645742,1206.91612 658.952121,1204.43023 656.722626,1202.64724 C659.909978,1200.19564 661.900009,1197.49544 662.692719,1194.54666 C664.179049,1188.7691 660.273304,1186.30892 650.975482,1187.16612 C646.351344,1187.59473 642.825438,1188.11762 640.397766,1188.73481 L640.397766,1188.73481 L639.629828,1196.29536 L641.537286,1195.75532 C638.944465,1204.51595 637.185641,1210.41352 636.260813,1213.44803 L636.260813,1213.44803 L634.997433,1213.19086 L632,1220.5714 Z M647,1201 L648.791002,1195.57672 L648.054974,1195.12698 C652.40572,1194.7037 654.368462,1195.33862 653.943201,1197.03175 C653.387091,1199.34215 651.211718,1200.64727 647.417083,1200.94709 L647.417083,1200.94709 L647,1201 Z M644.230305,1212.97192 C643.756467,1213.00936 643.013032,1213.00936 642,1212.97192 C643.176424,1208.44127 644.140439,1206.14787 644.892043,1206.0917 C648.846137,1205.6611 650.504568,1206.74696 649.867338,1209.34927 C649.638589,1210.36024 648.813458,1211.24016 647.391945,1211.98903 C646.313556,1212.53196 645.259676,1212.85959 644.230305,1212.97192 Z M659,1221 C662.261929,1220.69473 665.315649,1220.00787 668.161161,1218.93943 C672.013013,1217.46396 674.676343,1215.4797 676.151151,1212.98666 C676.567568,1212.24045 676.940607,1211.2568 677.27027,1210.03572 C677.704037,1208.54329 677.747414,1206.81342 677.4004,1204.84613 C677.330998,1204.64262 676.957958,1203.2689 676.281281,1200.72498 C675.691358,1198.45242 675.413747,1197.23134 675.448448,1197.06174 C675.656657,1196.31553 676.775776,1195.85762 678.805806,1195.68803 C679.17017,1195.65411 679.72973,1195.62867 680.484484,1195.61171 L680.796531,1195.60392 C681.397786,1195.58731 681.862005,1195.56447 682.189189,1195.53539 L682.189189,1195.53539 L685,1187.21679 C682.657658,1186.97935 680.636303,1186.93696 678.935936,1187.08959 C676.923257,1187.25918 675.196864,1187.65773 673.756757,1188.28523 C672.004338,1189.06537 670.386386,1190.27373 668.902903,1191.91031 C667.419419,1193.5469 666.443443,1195.2386 665.974975,1196.98543 C665.59326,1198.34218 665.671338,1200.00421 666.209209,1201.9715 C666.590924,1203.24346 666.972639,1204.49846 667.354354,1205.7365 C667.909576,1207.619 668.100434,1208.88248 667.926927,1209.52694 C667.788121,1210.01876 667.371705,1210.40883 666.677678,1210.69714 C665.862196,1211.01937 664.795128,1211.30768 663.476476,1211.56207 C662.7998,1211.7147 661.784785,1211.87582 660.431431,1212.04541 L660.431431,1212.04541 L659,1221 Z M678,1222 L686.244745,1221.24618 C687.333834,1215.78746 688.533534,1210.5367 689.843844,1205.49388 C691.205205,1200.31244 692.923924,1194.48114 695,1188 L695,1188 L686.984985,1188.18196 C684.908909,1194.33384 683.19019,1199.98318 681.828829,1205.12997 C680.433433,1210.3634 679.157157,1215.98675 678,1222 L678,1222 Z M696.097561,1221 L703.95122,1220.24618 C705.089431,1215.18603 706.130081,1210.75841 707.073171,1206.9633 C708.081301,1202.94292 709.097561,1199.10449 710.121951,1195.44801 L710.121951,1195.44801 L716.585366,1195.26606 L719,1187 L698.463415,1187.75382 L696,1196.01988 L702.219512,1195.83792 C701.211382,1199.35576 700.276423,1202.8476 699.414634,1206.31346 C698.260163,1210.87105 697.154472,1215.76656 696.097561,1221 L696.097561,1221 Z M714,1221 C717.658802,1220.48529 720.826376,1220.10784 723.502722,1219.86765 C726.212946,1219.62745 729.363581,1219.43873 732.954628,1219.30147 L732.954628,1219.30147 L735.063521,1211.16912 C732.844525,1211.2549 730.777979,1211.38358 728.863884,1211.55515 C727.136116,1211.70956 725.594676,1211.87255 724.239564,1212.04412 C724.375076,1211.20343 724.519056,1210.47426 724.671506,1209.85662 C724.840895,1209.1875 725.086509,1208.42402 725.408348,1207.56618 C726.966727,1207.30882 728.3049,1207.1201 729.422868,1207 C730.879613,1206.8799 732.717483,1206.81985 734.936479,1206.81985 L734.936479,1206.81985 L737.096189,1198.66176 C735.131276,1198.71324 733.284936,1198.81618 731.557169,1198.97059 C730.202057,1199.10784 728.889292,1199.25368 727.618875,1199.40809 C727.83908,1198.34436 728.042347,1197.46078 728.228675,1196.75735 C728.364186,1196.17402 728.533575,1195.57353 728.736842,1194.95588 C729.634604,1194.85294 730.947368,1194.72426 732.675136,1194.56985 C734.707804,1194.39828 736.977616,1194.25245 739.484574,1194.13235 L739.484574,1194.13235 L742,1186 C738.798548,1186.41176 736.15608,1186.70343 734.072595,1186.875 C730.261343,1187.23529 725.577737,1187.52696 720.021779,1187.75 L720.021779,1187.75 L718.116152,1195.39338 L720.631579,1195.31618 C719.564428,1198.86765 718.505747,1202.59926 717.455535,1206.51103 C716.252874,1211.02328 715.101028,1215.85294 714,1221 Z M737,1221 C740.261929,1220.69473 743.315649,1220.00787 746.161161,1218.93943 C750.013013,1217.46396 752.676343,1215.4797 754.151151,1212.98666 C754.567568,1212.24045 754.940607,1211.2568 755.27027,1210.03572 C755.704037,1208.54329 755.747414,1206.81342 755.4004,1204.84613 C755.330998,1204.64262 754.957958,1203.2689 754.281281,1200.72498 C753.691358,1198.45242 753.413747,1197.23134 753.448448,1197.06174 C753.656657,1196.31553 754.775776,1195.85762 756.805806,1195.68803 C757.17017,1195.65411 757.72973,1195.62867 758.484484,1195.61171 L758.796531,1195.60392 C759.397786,1195.58731 759.862005,1195.56447 760.189189,1195.53539 L760.189189,1195.53539 L763,1187.21679 C760.657658,1186.97935 758.636303,1186.93696 756.935936,1187.08959 C754.923257,1187.25918 753.196864,1187.65773 751.756757,1188.28523 C750.004338,1189.06537 748.386386,1190.27373 746.902903,1191.91031 C745.419419,1193.5469 744.443443,1195.2386 743.974975,1196.98543 C743.59326,1198.34218 743.671338,1200.00421 744.209209,1201.9715 C744.590924,1203.24346 744.972639,1204.49846 745.354354,1205.7365 C745.909576,1207.619 746.100434,1208.88248 745.926927,1209.52694 C745.788121,1210.01876 745.371705,1210.40883 744.677678,1210.69714 C743.862196,1211.01937 742.795128,1211.30768 741.476476,1211.56207 C740.7998,1211.7147 739.784785,1211.87582 738.431431,1212.04541 L738.431431,1212.04541 L737,1221 Z" id="websites"></path>
        </g>
    </g>
</svg>